<?xml version="1.0" encoding="utf-8"?>
<!-- Generator: Adobe Illustrator 22.1.0, SVG Export Plug-In . SVG Version: 6.00 Build 0)  -->
<svg version="1.1" id="svg2773" xmlns:svg="http://www.w3.org/2000/svg"
	 xmlns="http://www.w3.org/2000/svg" xmlns:xlink="http://www.w3.org/1999/xlink" x="0px" y="0px" viewBox="0 0 414.9 103.7"
	 style="enable-background:new 0 0 414.9 103.7;" xml:space="preserve">
<g id="layer1" transform="translate(-296.85063,-441.96494)">
	<path id="path79" d="M695.4,442.3c10.2,8.4,16.1,21.6,13.2,34.9c-2.9,10.7-10.5,19.7-19.9,26.3l23.1,42.2h-34.4l-23.7-48.3
		c1.9-0.6,3.6-1.3,5.6-2.3c4.3-2.6,8.6-5,12-9.2c5.7-6.6,7.6-16.9,4.6-25.5c-2-6.7-7.2-12.3-13.4-15.9l0.5-2.2L695.4,442.3z"/>
	<path id="path81" d="M574.7,442l-3,23.2l-19.4,0.1c-1,7.5-10.7,80.3-10.7,80.3l-28.2,0l10.2-80.4l-19.5,0l3.1-23.2H574.7z"/>
	<path id="path83" d="M340.4,442c11.6,7.9,16.6,21.8,13.6,35.5c-0.6,2.6-1.4,5.1-2.7,7.4l-0.4,0.8c-3.7,7.2-10,13.8-16.9,18.3
		l21.7,41.6l-35.7,0L296.9,498c0.2-0.1,1.2-0.5,1.7-0.8c11.3-4.8,22.5-15,22.2-28.4c-0.4-7.1-2.8-13.5-8-18.8
		c-2.3-2.5-5-4.5-7.7-6.1l0.5-1.9H340.4z"/>
	<path id="path85" d="M411,442.1l-14.7,103.5h-29.1L382,442.1L411,442.1z"/>
	<path id="path87" d="M493.6,465.9h-60.5l3.2-23.7h60.2L493.6,465.9z"/>
	<path id="path89" d="M479.1,505.6l3.2-24.3l-51.2,0l-3.3,24.3H479.1z"/>
	<path id="path91" d="M483.1,545.5h-60.9l3.5-24.5l61.2,0L483.1,545.5z"/>
	<path id="path93" d="M644.6,465.9h-60.5l3.2-23.7h60.2L644.6,465.9z"/>
	<path id="path95" d="M630.1,505.6l3.2-24.3l-51.2,0l-3.3,24.3H630.1z"/>
	<path id="path97" d="M634,545.6l-60.9,0l3.5-24.7l61.2,0L634,545.6z"/>
</g>
</svg>
