<svg width="415" height="104" viewBox="0 0 415 104" fill="none" xmlns="http://www.w3.org/2000/svg">
<g clip-path="url(#clip0_321_83)">
<path d="M398.549 0.334961C408.749 8.73496 414.649 21.935 411.749 35.235C408.849 45.935 401.249 54.935 391.849 61.535L414.949 103.735H380.549L356.849 55.435C358.749 54.835 360.449 54.135 362.449 53.135C366.749 50.535 371.049 48.135 374.449 43.935C380.149 37.335 382.049 27.035 379.049 18.435C377.049 11.735 371.849 6.13497 365.649 2.53497L366.149 0.334961H398.549Z" fill="#6BF02C"/>
<path d="M277.849 0.0350342L274.849 23.235L255.449 23.335C254.449 30.835 244.749 103.635 244.749 103.635H216.549L226.749 23.235H207.249L210.349 0.0350342H277.849V0.0350342Z" fill="#6BF02C"/>
<path d="M43.5493 0.0350342C55.1493 7.93503 60.1493 21.835 57.1493 35.535C56.5493 38.135 55.7493 40.635 54.4493 42.935L54.0493 43.735C50.3493 50.935 44.0493 57.535 37.1493 62.035L58.8493 103.635H23.1493L0.0493164 56.035C0.249316 55.935 1.24933 55.535 1.74933 55.235C13.0493 50.435 24.2493 40.235 23.9493 26.835C23.5493 19.735 21.1493 13.335 15.9493 8.03503C13.6493 5.53503 10.9493 3.53503 8.24933 1.93503L8.74933 0.0350342H43.5493Z" fill="#6BF02C"/>
<path d="M114.149 0.13501L99.4493 103.635H70.3494L85.1494 0.13501H114.149Z" fill="#6BF02C"/>
<path d="M196.749 23.9351H136.249L139.449 0.235107H199.649L196.749 23.9351Z" fill="#6BF02C"/>
<path d="M182.249 63.635L185.449 39.335H134.249L130.949 63.635H182.249Z" fill="#6BF02C"/>
<path d="M186.249 103.535H125.349L128.849 79.035H190.049L186.249 103.535Z" fill="#6BF02C"/>
<path d="M347.749 23.9351H287.249L290.449 0.235107H350.649L347.749 23.9351Z" fill="#6BF02C"/>
<path d="M333.249 63.635L336.449 39.335H285.249L281.949 63.635H333.249Z" fill="#6BF02C"/>
<path d="M337.149 103.635H276.249L279.749 78.9351H340.949L337.149 103.635Z" fill="#6BF02C"/>
</g>
<defs>
<clipPath id="clip0_321_83">
<rect width="414.9" height="103.7" fill="white"/>
</clipPath>
</defs>
</svg>
