<?xml version="1.0" encoding="UTF-8"?>
<!DOCTYPE svg PUBLIC "-//W3C//DTD SVG 1.1//EN" "http://www.w3.org/Graphics/SVG/1.1/DTD/svg11.dtd">
<!-- Creator: CorelDRAW 2020 (64-Bit) -->
<svg xmlns="http://www.w3.org/2000/svg" xml:space="preserve" width="170px" height="82px" version="1.1" style="shape-rendering:geometricPrecision; text-rendering:geometricPrecision; image-rendering:optimizeQuality; fill-rule:evenodd; clip-rule:evenodd"
viewBox="0 0 31.36 15.11"
 xmlns:xlink="http://www.w3.org/1999/xlink"
 xmlns:xodm="http://www.corel.com/coreldraw/odm/2003">
 <defs>
  <style type="text/css">
   <![CDATA[
    .fil8 {fill:none}
    .fil19 {fill:#F07535;fill-rule:nonzero}
    .fil20 {fill:#523E95;fill-rule:nonzero}
    .fil0 {fill:url(#id0)}
    .fil15 {fill:url(#id1)}
    .fil7 {fill:url(#id2)}
    .fil14 {fill:url(#id3)}
    .fil12 {fill:url(#id4)}
    .fil4 {fill:url(#id5)}
    .fil17 {fill:url(#id6)}
    .fil10 {fill:url(#id7)}
    .fil16 {fill:url(#id8)}
    .fil11 {fill:url(#id9)}
    .fil13 {fill:url(#id10)}
    .fil18 {fill:url(#id11)}
    .fil2 {fill:url(#id12)}
    .fil9 {fill:url(#id13)}
    .fil5 {fill:url(#id14)}
    .fil6 {fill:url(#id15)}
    .fil3 {fill:url(#id16)}
    .fil1 {fill:url(#id17);fill-rule:nonzero}
   ]]>
  </style>
  <linearGradient id="id0" gradientUnits="userSpaceOnUse" x1="4.77" y1="10.34" x2="7.31" y2="7.8">
   <stop offset="0" style="stop-opacity:1; stop-color:#F07535"/>
   <stop offset="1" style="stop-opacity:1; stop-color:#F79633"/>
  </linearGradient>
  <linearGradient id="id1" gradientUnits="userSpaceOnUse" x1="6.2" y1="1.37" x2="5.96" y2="2.08">
   <stop offset="0" style="stop-opacity:1; stop-color:#E6E7E8"/>
   <stop offset="1" style="stop-opacity:1; stop-color:#BDBFC1"/>
  </linearGradient>
  <linearGradient id="id2" gradientUnits="userSpaceOnUse" xlink:href="#id1" x1="6.78" y1="11.57" x2="7.14" y2="12.28">
  </linearGradient>
  <linearGradient id="id3" gradientUnits="userSpaceOnUse" xlink:href="#id1" x1="5.67" y1="3.49" x2="5.43" y2="4.2">
  </linearGradient>
  <linearGradient id="id4" gradientUnits="userSpaceOnUse" xlink:href="#id1" x1="2.54" y1="6.69" x2="2.23" y2="7.4">
  </linearGradient>
  <linearGradient id="id5" gradientUnits="userSpaceOnUse" xlink:href="#id1" x1="9.59" y1="8.73" x2="10.01" y2="9.43">
  </linearGradient>
  <linearGradient id="id6" gradientUnits="userSpaceOnUse" xlink:href="#id1" x1="11.53" y1="6.67" x2="11.22" y2="7.38">
  </linearGradient>
  <linearGradient id="id7" gradientUnits="userSpaceOnUse" xlink:href="#id1" x1="7.75" y1="0.29" x2="6.84" y2="1.66">
  </linearGradient>
  <linearGradient id="id8" gradientUnits="userSpaceOnUse" xlink:href="#id1" x1="12.49" y1="5.92" x2="12.72" y2="6.63">
  </linearGradient>
  <linearGradient id="id9" gradientUnits="userSpaceOnUse" xlink:href="#id1" x1="1.61" y1="8.31" x2="1.85" y2="9.02">
  </linearGradient>
  <linearGradient id="id10" gradientUnits="userSpaceOnUse" xlink:href="#id1" x1="4.02" y1="5.82" x2="4.44" y2="6.51">
  </linearGradient>
  <linearGradient id="id11" gradientUnits="userSpaceOnUse" xlink:href="#id1" x1="7.05" y1="2.82" x2="7.4" y2="3.53">
  </linearGradient>
  <linearGradient id="id12" gradientUnits="userSpaceOnUse" xlink:href="#id1" x1="10.07" y1="9.32" x2="10.99" y2="10.68">
  </linearGradient>
  <linearGradient id="id13" gradientUnits="userSpaceOnUse" xlink:href="#id1" x1="1.58" y1="5.08" x2="2.51" y2="6.44">
  </linearGradient>
  <linearGradient id="id14" gradientUnits="userSpaceOnUse" xlink:href="#id1" x1="8.59" y1="10.12" x2="8.35" y2="10.83">
  </linearGradient>
  <linearGradient id="id15" gradientUnits="userSpaceOnUse" xlink:href="#id1" x1="8.05" y1="12.24" x2="7.82" y2="12.95">
  </linearGradient>
  <linearGradient id="id16" gradientUnits="userSpaceOnUse" xlink:href="#id1" x1="3.25" y1="9.04" x2="2.34" y2="10.41">
  </linearGradient>
  <linearGradient id="id17" gradientUnits="userSpaceOnUse" x1="10.57" y1="6.33" x2="8.14" y2="4.67">
   <stop offset="0" style="stop-opacity:1; stop-color:#725FA7"/>
   <stop offset="1" style="stop-opacity:1; stop-color:#3E9DD7"/>
  </linearGradient>
 </defs>
 <g id="Слой_x0020_1">
  <metadata id="CorelCorpID_0Corel-Layer"/>
  <g id="_2400590599040">
   <path class="fil0" d="M6.85 7.33l-0.59 -0.58 -0.57 -0.01 -2.26 2.26 2.68 2.69 2.27 -2.27 -0.02 -0.57 -0.23 -0.24 -0.63 -0.62 -0.37 -0.01 0 -0.37 -0.28 -0.28zm-1.9 2.14l-0.46 -0.47 1.4 -1.41 0.16 0.01 0.31 0.3 0 0.16 -1.41 1.41 0 0zm1.16 1.16l-0.63 -0.63 1.41 -1.41 0.16 0 0.47 0.47 0 0.16 -1.41 1.41 0 0z"/>
   <polygon class="fil1" points="6.45,5.98 9.13,8.67 10.99,6.81 11.24,6.56 11.23,5.98 10.99,5.75 10.49,5.25 10.26,5.01 9.68,5 9.43,5.25 8.57,6.12 8.79,6.34 9.1,6.65 9.21,6.76 9.74,6.23 9.63,6.12 9.89,5.86 10.04,5.86 10.46,6.28 10.38,6.2 10.39,6.35 9.13,7.6 7.51,5.98 9.37,4.12 9.13,3.88 8.56,3.87 "/>
  </g>
  <g id="_2399233565920">
   <polygon class="fil2" points="15.11,7.42 14.58,7.95 14.05,8.48 13.52,9.01 12.99,9.54 12.46,10.08 11.93,10.61 11.4,11.14 10.87,11.67 10.34,12.2 9.81,12.73 9.55,12.99 9.01,12.46 9.28,12.2 9.81,11.67 10.34,11.14 10.87,10.61 11.4,10.08 11.93,9.54 12.46,9.01 12.99,8.48 13.52,7.95 14.05,7.42 13.52,6.89 14.05,6.36 14.58,6.89 "/>
   <g>
    <g>
     <polygon class="fil3" points="6.63,13.26 6.1,12.73 5.57,12.2 5.04,11.67 4.51,11.14 3.98,10.61 3.45,10.08 2.92,9.54 2.65,9.28 2.12,9.81 2.39,10.08 2.92,10.61 3.45,11.14 3.98,11.67 4.51,12.2 5.04,12.73 5.57,13.26 6.1,13.79 6.63,14.32 6.89,14.58 7.16,14.85 7.42,15.11 7.95,14.58 8.48,14.05 7.95,13.52 7.42,14.05 7.16,13.79 "/>
     <polygon class="fil4" points="10.08,9.81 10.61,9.28 11.14,8.75 11.67,8.22 11.14,7.69 10.61,8.22 10.08,8.75 9.55,9.28 9.01,9.81 9.55,10.34 "/>
     <polygon class="fil5" points="9.28,10.61 8.75,10.08 8.22,10.61 8.75,11.14 9.28,11.67 9.81,11.14 "/>
     <polygon class="fil6" points="8.75,12.73 8.22,12.2 7.69,12.73 8.22,13.26 8.75,13.79 9.28,13.26 "/>
     <polygon class="fil7" points="7.42,12.46 7.95,11.93 8.48,11.4 7.95,10.87 7.42,11.4 6.89,11.93 6.36,12.46 6.89,12.99 "/>
     <line class="fil8" x1="9.92" y1="12.69" x2="14.46" y2= "8.15" />
    </g>
    <g>
     <polygon class="fil9" points="0,7.69 0.53,7.16 1.06,6.63 1.59,6.1 2.12,5.57 2.65,5.04 3.18,4.51 3.71,3.98 4.24,3.45 4.77,2.92 5.3,2.39 5.57,2.12 6.1,2.65 5.83,2.92 5.3,3.45 4.77,3.98 4.24,4.51 3.71,5.04 3.18,5.57 2.65,6.1 2.12,6.63 1.59,7.16 1.06,7.69 1.59,8.22 1.06,8.75 0.53,8.22 "/>
     <polygon class="fil10" points="8.48,1.86 9.01,2.39 9.55,2.92 10.08,3.45 10.61,3.98 11.14,4.51 11.67,5.04 12.2,5.57 12.46,5.83 12.99,5.3 12.73,5.04 12.2,4.51 11.67,3.98 11.14,3.45 10.61,2.92 10.08,2.39 9.55,1.86 9.01,1.33 8.48,0.8 8.22,0.53 7.95,0.26 7.69,0 7.16,0.53 6.63,1.06 7.16,1.59 7.69,1.06 7.95,1.33 "/>
     <polygon class="fil11" points="1.86,8.48 2.39,7.95 2.92,8.48 2.39,9.01 1.86,9.54 1.33,9.01 "/>
     <polygon class="fil12" points="3.18,7.16 3.71,7.69 4,7.97 3.47,8.5 3.18,8.22 2.65,7.69 2.12,7.16 2.65,6.63 "/>
     <polygon class="fil13" points="5.04,5.3 4.51,5.83 3.98,6.36 3.45,6.89 3.98,7.42 4.51,6.89 5.04,6.36 5.57,5.83 6.1,5.3 5.57,4.77 "/>
     <polygon class="fil14" points="5.83,4.51 6.36,5.04 6.89,4.51 6.36,3.98 5.83,3.45 5.3,3.98 "/>
     <polygon class="fil15" points="6.36,2.39 6.89,2.92 7.42,2.39 6.89,1.86 6.36,1.33 5.83,1.86 "/>
     <polygon class="fil16" points="13.26,6.63 12.73,7.16 12.2,6.63 12.73,6.1 13.26,5.57 13.79,6.1 "/>
     <polygon class="fil17" points="11.93,7.95 11.4,7.42 11.12,7.14 11.65,6.61 11.93,6.89 12.46,7.42 12.99,7.95 12.46,8.48 "/>
     <polygon class="fil18" points="7.69,2.65 7.16,3.18 6.63,3.71 7.16,4.24 7.69,3.71 8.22,3.18 8.75,2.65 8.22,2.12 "/>
     <line class="fil8" x1="5.2" y1="2.42" x2="0.65" y2= "6.96" />
    </g>
   </g>
  </g>
  <g id="_2399233530112">
   <path class="fil19" d="M16.24 9.15l0 -4.07 1.48 0c0.46,0 0.81,0.08 1.05,0.25 0.24,0.16 0.37,0.4 0.37,0.7 0,0.22 -0.08,0.41 -0.23,0.58 -0.15,0.16 -0.33,0.28 -0.57,0.34l0 0.01c0.29,0.04 0.53,0.15 0.7,0.32 0.17,0.18 0.26,0.4 0.26,0.65 0,0.37 -0.14,0.67 -0.4,0.89 -0.27,0.22 -0.63,0.33 -1.09,0.33l-1.57 0zm0.92 -3.4l0 0.97 0.4 0c0.19,0 0.34,-0.05 0.45,-0.14 0.11,-0.09 0.16,-0.22 0.16,-0.38 0,-0.3 -0.22,-0.45 -0.67,-0.45l-0.34 0zm0 1.65l0 1.07 0.5 0c0.21,0 0.37,-0.05 0.49,-0.15 0.12,-0.1 0.18,-0.23 0.18,-0.4 0,-0.16 -0.06,-0.29 -0.17,-0.38 -0.12,-0.1 -0.29,-0.14 -0.5,-0.14l-0.5 0z"/>
   <path class="fil19" d="M23.54 9.15l-0.99 0 -0.29 -0.91 -1.45 0 -0.29 0.91 -0.99 0 1.48 -4.07 1.09 0 1.44 4.07zm-1.49 -1.61l-0.44 -1.37c-0.03,-0.1 -0.06,-0.22 -0.07,-0.36l-0.02 0c-0.01,0.11 -0.03,0.23 -0.07,0.35l-0.44 1.38 1.04 0z"/>
   <polygon class="fil19" points="27.57,9.15 26.65,9.15 26.65,7.49 24.97,7.49 24.97,9.15 24.05,9.15 24.05,5.08 24.97,5.08 24.97,6.7 26.65,6.7 26.65,5.08 27.57,5.08 "/>
   <polygon class="fil19" points="31.36,5.82 30.2,5.82 30.2,9.15 29.28,9.15 29.28,5.82 28.12,5.82 28.12,5.08 31.36,5.08 "/>
  </g>
  <polygon class="fil20" points="18.93,10.24 18.49,10.24 18.49,10.64 18.9,10.64 18.9,10.76 18.49,10.76 18.49,11.26 18.36,11.26 18.36,10.12 18.93,10.12 "/>
  <path id="1" class="fil20" d="M19.92 11.26l-0.15 0 -0.12 -0.32 -0.48 0 -0.11 0.32 -0.15 0 0.44 -1.14 0.13 0 0.44 1.14zm-0.31 -0.44l-0.18 -0.48c-0.01,-0.02 -0.01,-0.04 -0.02,-0.08l0 0c-0.01,0.03 -0.01,0.06 -0.02,0.08l-0.17 0.48 0.39 0z"/>
  <path id="2" class="fil20" d="M21.24 11.26l-0.13 0 0 -0.76c0,-0.06 0,-0.14 0.01,-0.22l0 0c-0.01,0.05 -0.03,0.08 -0.04,0.11l-0.38 0.87 -0.07 0 -0.38 -0.87c-0.02,-0.02 -0.03,-0.06 -0.04,-0.11l0 0c0,0.04 0,0.12 0,0.22l0 0.76 -0.12 0 0 -1.14 0.17 0 0.35 0.79c0.03,0.06 0.04,0.11 0.05,0.14l0.01 0c0.02,-0.06 0.04,-0.11 0.05,-0.14l0.36 -0.79 0.16 0 0 1.14z"/>
  <polygon id="3" class="fil20" points="21.67,11.26 21.54,11.26 21.54,10.12 21.67,10.12 "/>
  <polygon id="4" class="fil20" points="22.56,11.26 21.97,11.26 21.97,10.12 22.1,10.12 22.1,11.14 22.56,11.14 "/>
  <path id="5" class="fil20" d="M23.37 10.12l-0.38 0.72 0 0.42 -0.13 0 0 -0.42 -0.36 -0.72 0.15 0 0.25 0.52c0.01,0 0.01,0.03 0.03,0.06l0 0c0.01,-0.01 0.02,-0.04 0.03,-0.06l0.27 -0.52 0.14 0z"/>
  <path id="6" class="fil20" d="M24.82 11.18c-0.12,0.06 -0.24,0.1 -0.38,0.1 -0.16,0 -0.29,-0.06 -0.39,-0.16 -0.1,-0.1 -0.15,-0.24 -0.15,-0.42 0,-0.17 0.05,-0.31 0.16,-0.43 0.11,-0.11 0.25,-0.17 0.42,-0.17 0.13,0 0.23,0.02 0.32,0.06l0 0.15c-0.1,-0.06 -0.2,-0.09 -0.33,-0.09 -0.13,0 -0.23,0.05 -0.31,0.14 -0.08,0.08 -0.12,0.2 -0.12,0.34 0,0.14 0.03,0.25 0.11,0.33 0.07,0.09 0.18,0.13 0.31,0.13 0.08,0 0.16,-0.02 0.23,-0.06l0 -0.31 -0.25 0 0 -0.12 0.38 0 0 0.51z"/>
  <path id="7" class="fil20" d="M25.9 11.26l-0.16 0 -0.19 -0.32c-0.02,-0.03 -0.04,-0.06 -0.05,-0.08 -0.02,-0.02 -0.04,-0.03 -0.05,-0.05 -0.02,-0.01 -0.04,-0.02 -0.06,-0.03 -0.02,0 -0.04,-0.01 -0.07,-0.01l-0.11 0 0 0.49 -0.13 0 0 -1.14 0.34 0c0.05,0 0.1,0.01 0.14,0.02 0.04,0.01 0.08,0.03 0.11,0.06 0.03,0.02 0.05,0.06 0.07,0.09 0.02,0.04 0.03,0.08 0.03,0.14 0,0.03 -0.01,0.07 -0.02,0.1 -0.01,0.04 -0.03,0.07 -0.05,0.09 -0.03,0.03 -0.05,0.05 -0.08,0.07 -0.03,0.02 -0.07,0.03 -0.11,0.04l0 0c0.02,0.01 0.04,0.02 0.05,0.03 0.02,0.01 0.03,0.03 0.04,0.04 0.02,0.02 0.03,0.03 0.04,0.05 0.01,0.02 0.03,0.04 0.04,0.07l0.22 0.34zm-0.69 -1.02l0 0.41 0.19 0c0.03,0 0.06,0 0.09,-0.01 0.03,-0.01 0.05,-0.02 0.07,-0.04 0.02,-0.02 0.04,-0.05 0.05,-0.07 0.01,-0.03 0.02,-0.06 0.02,-0.09 0,-0.06 -0.02,-0.11 -0.06,-0.15 -0.04,-0.03 -0.1,-0.05 -0.17,-0.05l-0.19 0z"/>
  <path id="8" class="fil20" d="M26.49 11.28c-0.16,0 -0.29,-0.06 -0.38,-0.16 -0.1,-0.11 -0.15,-0.25 -0.15,-0.42 0,-0.18 0.05,-0.32 0.15,-0.43 0.1,-0.11 0.23,-0.17 0.4,-0.17 0.16,0 0.28,0.06 0.38,0.16 0.1,0.11 0.14,0.25 0.14,0.42 0,0.18 -0.05,0.33 -0.14,0.43 -0.1,0.11 -0.23,0.17 -0.4,0.17zm0.01 -1.06c-0.12,0 -0.21,0.05 -0.29,0.13 -0.07,0.09 -0.11,0.2 -0.11,0.34 0,0.14 0.04,0.25 0.11,0.34 0.07,0.08 0.17,0.13 0.28,0.13 0.13,0 0.22,-0.04 0.3,-0.13 0.07,-0.08 0.1,-0.19 0.1,-0.34 0,-0.15 -0.03,-0.26 -0.1,-0.34 -0.07,-0.09 -0.17,-0.13 -0.29,-0.13z"/>
  <path id="9" class="fil20" d="M28.09 10.8c0,0.32 -0.15,0.48 -0.44,0.48 -0.27,0 -0.41,-0.16 -0.41,-0.46l0 -0.7 0.13 0 0 0.69c0,0.23 0.1,0.35 0.3,0.35 0.19,0 0.28,-0.12 0.28,-0.34l0 -0.7 0.14 0 0 0.68z"/>
  <path id="10" class="fil20" d="M28.5 10.83l0 0.43 -0.13 0 0 -1.14 0.31 0c0.12,0 0.21,0.03 0.28,0.09 0.07,0.06 0.1,0.14 0.1,0.25 0,0.11 -0.04,0.2 -0.11,0.27 -0.07,0.06 -0.17,0.1 -0.3,0.1l-0.15 0zm0 -0.59l0 0.47 0.14 0c0.09,0 0.16,-0.02 0.21,-0.06 0.05,-0.05 0.07,-0.11 0.07,-0.18 0,-0.15 -0.09,-0.23 -0.26,-0.23l-0.16 0z"/>
 </g>
</svg>
