<svg width="111" height="37" viewBox="0 0 111 37" fill="none" xmlns="http://www.w3.org/2000/svg">
<g clip-path="url(#clip0)">
<path d="M25.4695 18.2685L31.7297 26.8877H29.6025L24.1324 19.4137L21.4581 21.7041V26.8274H19.7563V8.02197H21.4581V19.8959L29.1162 13.2658H31.365L25.4695 18.2685Z" fill="#333333"/>
<path d="M34.1 15.7973C34.8901 13.9288 36.7743 12.7233 38.8407 12.8439C40.6641 12.8439 42.1228 13.5672 42.9129 14.8329C43.3991 15.6165 43.5815 16.5206 43.5815 18.0877V26.8274H41.9404V18.3288C41.9404 16.9425 41.7581 16.2192 41.3326 15.5562C40.6033 14.7124 39.5093 14.2302 38.4153 14.2905C36.8958 14.2302 35.4371 15.074 34.7686 16.4C34.2823 17.3644 34.1 18.2083 34.1 20.137V26.8274H32.459V8.02197H34.1608V15.7973H34.1Z" fill="#333333"/>
<path d="M57.8036 26.7671C57.3782 26.8877 56.892 26.948 56.4665 26.948C55.1902 26.948 54.7039 26.2849 54.7039 24.4767C53.6707 26.2849 51.665 27.3699 49.5378 27.2493C46.7419 27.2493 45.0401 25.8027 45.0401 23.3918C44.9794 21.7041 46.0126 20.1973 47.6536 19.7151C48.6261 19.2932 48.8084 19.2932 52.4551 18.9315C54.0961 18.7507 54.6432 18.3288 54.6432 17.1836C54.6432 15.1343 53.5491 14.2302 51.0572 14.2302C48.7476 14.2302 47.5321 15.1946 47.3497 17.485H45.7087C45.8303 14.5315 47.836 12.9041 51.2396 12.9041C53.7315 12.9041 55.6156 13.8685 56.1018 15.3754C56.2842 16.0987 56.345 16.8822 56.2842 17.6055V23.6932C56.2842 25.3808 56.4057 25.6219 57.2566 25.6219C57.439 25.6219 57.6821 25.5617 57.8644 25.5014V26.7671H57.8036ZM54.5824 19.4137C54.0354 19.8959 53.6099 20.0165 50.8141 20.3781C48.0183 20.7397 46.6812 21.5836 46.6812 23.211C46.6812 24.8384 47.9575 25.863 49.8416 25.863C52.5767 25.863 54.5216 24.0548 54.5216 21.6439V19.4137H54.5824Z" fill="#333333"/>
<path d="M60.2956 15.7973C60.5995 15.2549 60.9641 14.7124 61.4504 14.2905C62.4228 13.3261 63.8207 12.8439 65.1579 12.9042C66.7381 12.8439 68.2576 13.5069 69.23 14.7727C69.777 15.6165 69.9594 16.4001 69.9594 18.148V26.8877H68.2576V18.6302C68.2576 16.9425 68.136 16.159 67.6498 15.5562C66.9812 14.7124 65.8872 14.2302 64.7932 14.2905C63.2129 14.2302 61.7543 15.074 61.0249 16.4001C60.5387 17.3042 60.4171 18.2083 60.4171 20.0165V26.8274H58.7153V13.2658H60.2956V15.7973Z" fill="#333333"/>
<path d="M77.1309 14.6521H74.2743V23.211C74.2743 25.0795 74.5782 25.5014 76.0369 25.5014C76.4016 25.5014 76.7662 25.4411 77.1309 25.4411V26.8877C76.6447 26.948 76.0977 26.948 75.6114 26.948C74.2135 26.948 73.3626 26.5863 72.9372 25.863C72.6333 25.3808 72.5725 24.8384 72.5725 22.4274V14.6521H70.2021V13.2658H72.5725V9.1069H74.2743V13.2658H77.1309V14.6521Z" fill="#333333"/>
<path d="M89.226 22.3672C88.6182 25.5014 86.5518 27.2494 83.3913 27.2494C79.623 27.2494 77.0703 24.4768 77.0703 20.1973C77.0703 15.9179 79.6838 12.8439 83.3305 12.8439C85.6401 12.8439 87.7066 14.1699 88.6182 16.2795C89.1652 17.6055 89.4084 19.0521 89.3476 20.4987H78.7113C78.7721 23.9343 80.4739 25.9233 83.3305 25.9233C85.5185 25.9233 86.9772 24.7178 87.5242 22.4274L89.226 22.3672ZM87.7066 19.1124C87.585 16.159 85.8832 14.2905 83.3305 14.2905C80.7778 14.2905 79.1976 15.9781 78.8329 19.1124H87.7066Z" fill="#333333"/>
<path d="M96.2153 19.5946L101.625 26.8274H99.4973L95.1212 20.9206L90.806 26.8274H88.8003L94.088 19.6548L89.2257 13.2658H91.353L95.182 18.3891L99.0718 13.2658H101.078L96.2153 19.5946Z" fill="#333333"/>
<path d="M2.79879 14.5316C2.79879 14.5316 -0.544026 17.6658 0.124538 21.6439C0.793102 25.6219 2.79879 27.2493 2.79879 27.2493L9.48443 33.5178C9.48443 33.5178 15.1368 27.0685 10.3353 21.9452C5.53383 16.822 2.79879 14.5316 2.79879 14.5316Z" fill="url(#paint0_linear)" stroke="url(#paint1_linear)" stroke-width="0.2" stroke-miterlimit="10"/>
<path d="M2.79879 0.0658264C2.79879 0.0658264 -0.544026 3.20007 0.124538 7.17814C0.793102 11.1562 2.79879 12.7836 2.79879 12.7836L9.48443 19.0521C9.48443 19.0521 15.1368 12.6028 10.3353 7.47951C5.53383 2.35623 2.79879 0.0658264 2.79879 0.0658264Z" fill="url(#paint2_linear)" stroke="url(#paint3_linear)" stroke-width="0.2" stroke-miterlimit="10"/>
<path d="M83.0267 32.0109C83.0875 32.0109 83.0875 32.0109 83.0875 32.0712V33.7589C83.0875 33.8191 83.0875 33.8794 83.0267 33.8794H82.7228C82.662 33.8794 82.6012 33.8191 82.6012 33.8191L82.5405 33.6383C82.2973 33.8794 81.9327 34 81.6288 34C80.6563 34 79.8662 33.2767 79.8662 32.252C79.8662 31.2876 80.5956 30.5041 81.6288 30.5041C82.2366 30.5041 82.7228 30.7452 83.0875 31.2274C83.1482 31.2876 83.0875 31.2876 83.0875 31.3479L82.7836 31.589C82.7228 31.6493 82.7228 31.6493 82.662 31.589C82.4189 31.2274 82.0542 31.0466 81.6288 31.0466C80.9602 31.0466 80.474 31.589 80.474 32.252C80.474 32.915 80.9602 33.4575 81.6288 33.4575C81.9935 33.4575 82.2366 33.337 82.4797 33.0959V32.1918C82.4797 32.1315 82.5405 32.1315 82.6012 32.1315H83.0267V32.0109Z" fill="#868484"/>
<path d="M86.3693 30.5041C87.0986 30.5041 87.6456 31.0466 87.6456 31.7096C87.6456 32.1918 87.4025 32.5534 86.9771 32.7945L87.5241 33.7589C87.5849 33.8191 87.5241 33.8794 87.4633 33.8794H87.0379C86.9771 33.8794 86.9163 33.8191 86.9163 33.8191L86.4909 32.9753H86.4301H85.3361V33.7589C85.3361 33.8191 85.3361 33.8191 85.2753 33.8191H84.9106C84.8498 33.8191 84.7891 33.7589 84.7891 33.7589V30.5644C84.7891 30.5041 84.8498 30.5041 84.8498 30.5041H86.3693ZM86.3693 32.3726C86.7948 32.3726 87.0986 32.0712 87.0986 31.7096C87.0986 31.3479 86.8555 31.0466 86.3693 31.0466H85.2753V32.4329H86.3693V32.3726Z" fill="#868484"/>
<path d="M90.806 30.4438C91.7785 30.4438 92.5686 31.1671 92.5686 32.1918C92.5686 33.2164 91.7785 33.9397 90.806 33.9397C89.8336 33.9397 89.0435 33.2164 89.0435 32.1918C89.0435 31.1671 89.8336 30.4438 90.806 30.4438ZM89.6512 32.1918C89.6512 32.8548 90.1375 33.3973 90.806 33.3973C91.4746 33.3973 91.9608 32.9151 91.9608 32.1918C91.9608 31.4685 91.4746 30.9863 90.806 30.9863C90.0767 30.9863 89.6512 31.4685 89.6512 32.1918Z" fill="#868484"/>
<path d="M93.9665 30.5644C93.9665 30.5041 93.9665 30.5041 94.0273 30.5041H94.4528C94.5135 30.5041 94.5135 30.5644 94.5135 30.5644V32.3726C94.5135 32.915 94.8782 33.3972 95.4252 33.3972C96.033 33.3972 96.3977 32.9753 96.3977 32.3726V30.5644C96.3977 30.5041 96.4585 30.5041 96.4585 30.5041H96.8839C96.9447 30.5041 96.9447 30.5644 96.9447 30.5644V32.3726C96.9447 33.2164 96.3369 33.8794 95.4252 33.8794C94.5135 33.8794 93.9058 33.2164 93.9058 32.3726V30.5644H93.9665Z" fill="#868484"/>
<path d="M100.227 30.5041C100.956 30.5041 101.503 31.0466 101.503 31.7096C101.503 32.3726 100.956 32.915 100.227 32.915H99.1329V33.7589C99.1329 33.8191 99.1329 33.8191 99.0722 33.8191H98.6467C98.5859 33.8191 98.5859 33.7589 98.5859 33.7589V30.5644C98.5859 30.5041 98.6467 30.5041 98.6467 30.5041H100.227ZM100.227 32.3726C100.652 32.3726 100.956 32.0712 100.956 31.7096C100.956 31.3479 100.713 31.0466 100.227 31.0466H99.1329V32.4328H100.227V32.3726Z" fill="#868484"/>
</g>
<defs>
<linearGradient id="paint0_linear" x1="-0.73402" y1="19.6022" x2="12.879" y2="28.5134" gradientUnits="userSpaceOnUse">
<stop stop-color="#2499FF"/>
<stop offset="0.05" stop-color="#2194F8"/>
<stop offset="0.3" stop-color="#1380D9"/>
<stop offset="0.55" stop-color="#0A72C3"/>
<stop offset="0.79" stop-color="#0469B6"/>
<stop offset="1" stop-color="#0266B1"/>
</linearGradient>
<linearGradient id="paint1_linear" x1="-0.785742" y1="19.569" x2="12.9123" y2="28.5396" gradientUnits="userSpaceOnUse">
<stop stop-color="#2499FF"/>
<stop offset="0.15" stop-color="#1786E1"/>
<stop offset="0.32" stop-color="#0C74C7"/>
<stop offset="0.47" stop-color="#046AB7"/>
<stop offset="0.59" stop-color="#0266B1"/>
</linearGradient>
<linearGradient id="paint2_linear" x1="-0.73402" y1="5.13642" x2="12.879" y2="14.0477" gradientUnits="userSpaceOnUse">
<stop stop-color="#2499FF"/>
<stop offset="0.05" stop-color="#2194F8"/>
<stop offset="0.3" stop-color="#1380D9"/>
<stop offset="0.55" stop-color="#0A72C3"/>
<stop offset="0.79" stop-color="#0469B6"/>
<stop offset="1" stop-color="#0266B1"/>
</linearGradient>
<linearGradient id="paint3_linear" x1="-0.785742" y1="5.10327" x2="12.9123" y2="14.0739" gradientUnits="userSpaceOnUse">
<stop stop-color="#2499FF"/>
<stop offset="0.15" stop-color="#1786E1"/>
<stop offset="0.32" stop-color="#0C74C7"/>
<stop offset="0.47" stop-color="#046AB7"/>
<stop offset="0.59" stop-color="#0266B1"/>
</linearGradient>
<clipPath id="clip0">
<rect width="111" height="37" fill="white"/>
</clipPath>
</defs>
</svg>
