<svg width="115" height="76" viewBox="0 0 115 76" fill="none" xmlns="http://www.w3.org/2000/svg">
<g clip-path="url(#clip0_325_196)" filter="url(#filter0_d_325_196)">
<path d="M29.4695 36.0433L35.7297 53.0487H33.6025L28.1324 38.3027L25.4581 42.8216V52.9297H23.7563V15.8271H25.4581V39.2541L33.1162 26.1731H35.365L29.4695 36.0433Z" fill="#333333"/>
<path d="M38.1 31.1676C38.8901 27.4811 40.7743 25.1027 42.8407 25.3407C44.6641 25.3407 46.1228 26.7677 46.9129 29.2649C47.3991 30.8109 47.5815 32.5947 47.5815 35.6865V52.9297H45.9404V36.1622C45.9404 33.4271 45.7581 32 45.3326 30.692C44.6033 29.0272 43.5093 28.0758 42.4153 28.1948C40.8958 28.0758 39.4371 29.7406 38.7686 32.3568C38.2823 34.2595 38.1 35.9245 38.1 39.7298V52.9297H36.459V15.8271H38.1608V31.1676H38.1Z" fill="#333333"/>
<path d="M61.8036 52.8108C61.3782 53.0487 60.892 53.1677 60.4665 53.1677C59.1902 53.1677 58.7039 51.8594 58.7039 48.2919C57.6707 51.8594 55.665 54.0001 53.5378 53.7621C50.7419 53.7621 49.0401 50.908 49.0401 46.1514C48.9794 42.8216 50.0126 39.8487 51.6536 38.8974C52.6261 38.065 52.8084 38.065 56.4551 37.3513C58.0961 36.9946 58.6432 36.1622 58.6432 33.9028C58.6432 29.8596 57.5491 28.0758 55.0572 28.0758C52.7476 28.0758 51.5321 29.9785 51.3497 34.4974H49.7087C49.8303 28.6703 51.836 25.4594 55.2396 25.4594C57.7315 25.4594 59.6156 27.3622 60.1018 30.3353C60.2842 31.7623 60.345 33.3081 60.2842 34.7352V46.746C60.2842 50.0756 60.4057 50.5513 61.2566 50.5513C61.439 50.5513 61.6821 50.4325 61.8644 50.3136V52.8108H61.8036ZM58.5824 38.3027C58.0354 39.2541 57.6099 39.492 54.8141 40.2054C52.0183 40.9189 50.6812 42.5839 50.6812 45.7947C50.6812 49.0055 51.9575 51.027 53.8416 51.027C56.5767 51.027 58.5216 47.4595 58.5216 42.7028V38.3027H58.5824Z" fill="#333333"/>
<path d="M64.2956 31.1676C64.5995 30.0975 64.9641 29.0272 65.4504 28.1948C66.4228 26.292 67.8207 25.3407 69.1579 25.4596C70.7381 25.3407 72.2576 26.6488 73.23 29.1461C73.777 30.8109 73.9594 32.357 73.9594 35.8055V53.0487H72.2576V36.7569C72.2576 33.4271 72.136 31.8813 71.6498 30.692C70.9812 29.0272 69.8872 28.0758 68.7932 28.1948C67.2129 28.0758 65.7543 29.7406 65.0249 32.357C64.5387 34.1407 64.4171 35.9245 64.4171 39.492V52.9297H62.7153V26.1731H64.2956V31.1676Z" fill="#333333"/>
<path d="M81.1309 28.9082H78.2743V45.7947C78.2743 49.4812 78.5782 50.3136 80.0369 50.3136C80.4016 50.3136 80.7662 50.1946 81.1309 50.1946V53.0487C80.6447 53.1677 80.0977 53.1677 79.6114 53.1677C78.2135 53.1677 77.3626 52.4541 76.9372 51.027C76.6333 50.0756 76.5725 49.0055 76.5725 44.2487V28.9082H74.2021V26.1731H76.5725V17.9677H78.2743V26.1731H81.1309V28.9082Z" fill="#333333"/>
<path d="M93.226 44.1299C92.6182 50.3136 90.5518 53.7623 87.3913 53.7623C83.623 53.7623 81.0703 48.2921 81.0703 39.8487C81.0703 31.4056 83.6838 25.3407 87.3305 25.3407C89.6401 25.3407 91.7066 27.9568 92.6182 32.119C93.1652 34.7352 93.4084 37.5893 93.3476 40.4434H82.7113C82.7721 47.2217 84.4739 51.146 87.3305 51.146C89.5185 51.146 90.9772 48.7676 91.5242 44.2487L93.226 44.1299ZM91.7066 37.7082C91.585 31.8813 89.8832 28.1948 87.3305 28.1948C84.7778 28.1948 83.1976 31.5244 82.8329 37.7082H91.7066Z" fill="#333333"/>
<path d="M100.215 38.6596L105.625 52.9297H103.497L99.1212 41.2758L94.806 52.9297H92.8003L98.088 38.7784L93.2257 26.1731H95.353L99.182 36.2812L103.072 26.1731H105.078L100.215 38.6596Z" fill="#333333"/>
<path d="M6.79879 28.6705C6.79879 28.6705 3.45597 34.8541 4.12454 42.7028C4.7931 50.5513 6.79879 53.7621 6.79879 53.7621L13.4844 66.1297C13.4844 66.1297 19.1368 53.4054 14.3353 43.2973C9.53383 33.1894 6.79879 28.6705 6.79879 28.6705Z" fill="url(#paint0_linear_325_196)" stroke="url(#paint1_linear_325_196)" stroke-width="0.2" stroke-miterlimit="10"/>
<path d="M6.79879 0.129875C6.79879 0.129875 3.45597 6.31365 4.12454 14.1623C4.7931 22.0109 6.79879 25.2217 6.79879 25.2217L13.4844 37.5893C13.4844 37.5893 19.1368 24.865 14.3353 14.7569C9.53383 4.64878 6.79879 0.129875 6.79879 0.129875Z" fill="url(#paint2_linear_325_196)" stroke="url(#paint3_linear_325_196)" stroke-width="0.2" stroke-miterlimit="10"/>
<path d="M87.0267 63.1566C87.0875 63.1566 87.0875 63.1566 87.0875 63.2756V66.6054C87.0875 66.7242 87.0875 66.8431 87.0267 66.8431H86.7228C86.662 66.8431 86.6012 66.7242 86.6012 66.7242L86.5405 66.3675C86.2973 66.8431 85.9327 67.0811 85.6288 67.0811C84.6563 67.0811 83.8662 65.654 83.8662 63.6323C83.8662 61.7296 84.5956 60.1838 85.6288 60.1838C86.2366 60.1838 86.7228 60.6595 87.0875 61.6108C87.1482 61.7296 87.0875 61.7296 87.0875 61.8486L86.7836 62.3242C86.7228 62.4432 86.7228 62.4432 86.662 62.3242C86.4189 61.6108 86.0542 61.2541 85.6288 61.2541C84.9602 61.2541 84.474 62.3242 84.474 63.6323C84.474 64.9404 84.9602 66.0107 85.6288 66.0107C85.9935 66.0107 86.2366 65.773 86.4797 65.2973V63.5135C86.4797 63.3946 86.5405 63.3946 86.6012 63.3946H87.0267V63.1566Z" fill="#868484"/>
<path d="M90.3693 60.1838C91.0986 60.1838 91.6456 61.2541 91.6456 62.5622C91.6456 63.5136 91.4025 64.227 90.9771 64.7027L91.5241 66.6054C91.5849 66.7242 91.5241 66.8431 91.4633 66.8431H91.0379C90.9771 66.8431 90.9163 66.7242 90.9163 66.7242L90.4909 65.0594H90.4301H89.3361V66.6054C89.3361 66.7242 89.3361 66.7242 89.2753 66.7242H88.9106C88.8498 66.7242 88.7891 66.6054 88.7891 66.6054V60.3027C88.7891 60.1838 88.8498 60.1838 88.8498 60.1838H90.3693ZM90.3693 63.8703C90.7948 63.8703 91.0986 63.2756 91.0986 62.5622C91.0986 61.8486 90.8555 61.2541 90.3693 61.2541H89.2753V63.9892H90.3693V63.8703Z" fill="#868484"/>
<path d="M94.806 60.0648C95.7785 60.0648 96.5686 61.4918 96.5686 63.5136C96.5686 65.5351 95.7785 66.9621 94.806 66.9621C93.8336 66.9621 93.0435 65.5351 93.0435 63.5136C93.0435 61.4918 93.8336 60.0648 94.806 60.0648ZM93.6512 63.5136C93.6512 64.8216 94.1375 65.892 94.806 65.892C95.4746 65.892 95.9608 64.9406 95.9608 63.5136C95.9608 62.0865 95.4746 61.1351 94.806 61.1351C94.0767 61.1351 93.6512 62.0865 93.6512 63.5136Z" fill="#868484"/>
<path d="M97.9665 60.3027C97.9665 60.1838 97.9665 60.1838 98.0273 60.1838H98.4528C98.5135 60.1838 98.5135 60.3027 98.5135 60.3027V63.8703C98.5135 64.9404 98.8782 65.8918 99.4252 65.8918C100.033 65.8918 100.398 65.0594 100.398 63.8703V60.3027C100.398 60.1838 100.459 60.1838 100.459 60.1838H100.884C100.945 60.1838 100.945 60.3027 100.945 60.3027V63.8703C100.945 65.5351 100.337 66.8431 99.4252 66.8431C98.5135 66.8431 97.9058 65.5351 97.9058 63.8703V60.3027H97.9665Z" fill="#868484"/>
<path d="M104.227 60.1838C104.956 60.1838 105.503 61.2541 105.503 62.5622C105.503 63.8703 104.956 64.9404 104.227 64.9404H103.133V66.6054C103.133 66.7242 103.133 66.7242 103.072 66.7242H102.647C102.586 66.7242 102.586 66.6054 102.586 66.6054V60.3027C102.586 60.1838 102.647 60.1838 102.647 60.1838H104.227ZM104.227 63.8703C104.652 63.8703 104.956 63.2756 104.956 62.5622C104.956 61.8486 104.713 61.2541 104.227 61.2541H103.133V63.989H104.227V63.8703Z" fill="#868484"/>
</g>
<defs>
<filter id="filter0_d_325_196" x="0" y="0" width="119" height="81" filterUnits="userSpaceOnUse" color-interpolation-filters="sRGB">
<feFlood flood-opacity="0" result="BackgroundImageFix"/>
<feColorMatrix in="SourceAlpha" type="matrix" values="0 0 0 0 0 0 0 0 0 0 0 0 0 0 0 0 0 0 127 0" result="hardAlpha"/>
<feOffset dy="4"/>
<feGaussianBlur stdDeviation="2"/>
<feComposite in2="hardAlpha" operator="out"/>
<feColorMatrix type="matrix" values="0 0 0 0 0 0 0 0 0 0 0 0 0 0 0 0 0 0 0.25 0"/>
<feBlend mode="normal" in2="BackgroundImageFix" result="effect1_dropShadow_325_196"/>
<feBlend mode="normal" in="SourceGraphic" in2="effect1_dropShadow_325_196" result="shape"/>
</filter>
<linearGradient id="paint0_linear_325_196" x1="3.26598" y1="38.6746" x2="20.7839" y2="44.4869" gradientUnits="userSpaceOnUse">
<stop stop-color="#2499FF"/>
<stop offset="0.05" stop-color="#2194F8"/>
<stop offset="0.3" stop-color="#1380D9"/>
<stop offset="0.55" stop-color="#0A72C3"/>
<stop offset="0.79" stop-color="#0469B6"/>
<stop offset="1" stop-color="#0266B1"/>
</linearGradient>
<linearGradient id="paint1_linear_325_196" x1="3.21426" y1="38.6091" x2="20.8446" y2="44.4611" gradientUnits="userSpaceOnUse">
<stop stop-color="#2499FF"/>
<stop offset="0.15" stop-color="#1786E1"/>
<stop offset="0.32" stop-color="#0C74C7"/>
<stop offset="0.47" stop-color="#046AB7"/>
<stop offset="0.59" stop-color="#0266B1"/>
</linearGradient>
<linearGradient id="paint2_linear_325_196" x1="3.26598" y1="10.134" x2="20.784" y2="15.9463" gradientUnits="userSpaceOnUse">
<stop stop-color="#2499FF"/>
<stop offset="0.05" stop-color="#2194F8"/>
<stop offset="0.3" stop-color="#1380D9"/>
<stop offset="0.55" stop-color="#0A72C3"/>
<stop offset="0.79" stop-color="#0469B6"/>
<stop offset="1" stop-color="#0266B1"/>
</linearGradient>
<linearGradient id="paint3_linear_325_196" x1="3.21426" y1="10.0686" x2="20.8446" y2="15.9206" gradientUnits="userSpaceOnUse">
<stop stop-color="#2499FF"/>
<stop offset="0.15" stop-color="#1786E1"/>
<stop offset="0.32" stop-color="#0C74C7"/>
<stop offset="0.47" stop-color="#046AB7"/>
<stop offset="0.59" stop-color="#0266B1"/>
</linearGradient>
<clipPath id="clip0_325_196">
<rect width="111" height="73" fill="white" transform="translate(4)"/>
</clipPath>
</defs>
</svg>
