<?xml version="1.0" standalone="no"?>
<!-- Generator: Paintmaps.com , Online SVG vector map maker -->
<svg xmlns="http://www.w3.org/2000/svg" version="1.1" baseProfile="full" width="800" height="534" style="background-color:#e0f2f1">
<rect width="100%" height="100%" fill="#1B1A1E"/>
<path d="M 672.6931 327.9523 L 669.0359 326.458 L 672.3982 323.9413 L 673.5189 324.0199 L 672.6931 327.9523 Z M 649.6885 323.1548 L 651.694 322.211 L 652.3429 323.4694 L 650.1604 325.5929 L 652.1659 328.5029 L 651.871 330.705 L 648.3908 331.7274 L 646.2083 330.4691 L 644.8516 331.7274 L 644.2028 330.3118 L 645.5594 327.5591 L 645.2645 326.1434 L 643.259 325.4356 L 641.3714 322.0537 L 641.9613 318.7505 L 644.0258 318.4359 L 645.3825 320.9526 L 649.6885 323.1548 Z M 661.8396 285.089 L 664.671 288.8642 L 665.2608 287.6844 L 670.8645 288.7069 L 673.3419 291.5382 L 681.482 291.8528 L 686.9088 293.3471 L 687.6756 298.3019 L 685.3751 298.8525 L 683.0157 300.5041 L 682.1899 303.4927 L 678.1788 306.56 L 678.3558 308.0543 L 680.8922 310.0992 L 673.9908 310.3351 L 672.0442 314.0316 L 669.6258 316.0764 L 668.2691 315.9978 L 666.7945 311.2003 L 665.4378 311.3576 L 665.0249 313.7956 L 660.5419 313.1665 L 659.0083 311.2789 L 655.941 309.8632 L 652.8737 310.0205 L 651.1041 308.9981 L 649.9244 311.9867 L 644.2618 311.9867 L 642.1383 312.5373 L 640.8995 314.1102 L 636.7705 314.7394 L 631.5207 316.8629 L 628.3355 317.2562 L 626.6839 316.2337 L 625.1502 311.9081 L 623.1447 310.0205 L 620.9032 310.5711 L 618.1899 309.7846 L 618.5438 307.9757 L 617.1281 305.3016 L 618.7207 303.4141 L 621.2571 302.549 L 623.1447 299.639 L 631.2258 292.0101 L 633.7622 289.336 L 635.8267 289.1788 L 637.4194 287.4485 L 640.6046 287.999 L 644.8516 287.3698 L 642.7281 290.8304 L 650.9272 294.0549 L 651.753 293.819 L 655.6461 288.6282 L 661.8396 285.089 Z" fill="#000" fill-opacity="1" stroke="#000" stroke-width="0" paint-order="fill" stroke-opacity="1" stroke-dasharray="" stroke-linecap="butt" stroke-linejoin="miter" stroke-miterlimit="10" clip-path="none" style="filter: url(#f1)"/>
<path d="M 576.8406 266.2135 L 572.6525 270.4605 L 568.4645 267.5505 L 569.4083 263.4608 L 571.2369 261.3373 L 576.0147 262.6743 L 575.7198 264.4832 L 576.8406 266.2135 Z" fill="#000" fill-opacity="1" stroke="#000" stroke-width="0" paint-order="fill" stroke-opacity="1" stroke-dasharray="" stroke-linecap="butt" stroke-linejoin="miter" stroke-miterlimit="10" clip-path="none" style="filter: url(#f1)"/>
<path d="M 617.541 257.4835 L 615.2995 261.9665 L 615.4175 264.0113 L 616.7742 264.4832 L 616.2433 268.4156 L 618.1899 271.011 L 618.7207 276.9883 L 615.1226 276.4377 L 614.5327 281.7858 L 612.6452 284.4599 L 606.3336 288.235 L 602.9714 291.3023 L 596.247 294.0549 L 593.3567 297.3582 L 590.3484 298.3019 L 584.1548 291.8528 L 581.3235 290.6731 L 578.3742 292.0887 L 577.0175 294.6841 L 577.4304 300.6614 L 574.5401 302.0771 L 573.3014 304.2006 L 575.012 306.6387 L 578.0203 312.9305 L 578.2562 316.4697 L 574.5991 316.4697 L 574.835 317.964 L 577.7253 320.2448 L 577.8433 321.5032 L 574.5991 322.2897 L 569.7622 320.9526 L 570.3521 318.2786 L 569.2903 315.7619 L 569.7622 311.1216 L 570.824 308.6835 L 568.8184 305.6162 L 569.7032 301.8411 L 567.5207 298.9311 L 565.2793 299.3244 L 565.9281 297.8301 L 563.9816 298.4592 L 563.6866 296.8076 L 558.024 290.909 L 555.1336 290.4371 L 553.423 286.9766 L 551.4175 285.325 L 553.541 283.5947 L 554.6618 279.505 L 558.083 276.9096 L 559.3806 274.6288 L 561.6811 273.921 L 565.0433 270.9324 L 565.2793 266.2135 L 564.2765 263.6967 L 570.824 258.5059 L 573.0654 258.5059 L 575.012 257.2476 L 577.1945 257.4835 L 577.0765 253.787 L 580.0258 252.1354 L 585.1576 247.0233 L 589.9945 245.1357 L 595.5982 243.8774 L 597.6037 241.1247 L 599.5502 240.1809 L 603.2664 236.4844 L 605.4488 231.8442 L 608.1622 229.5634 L 609.106 226.5748 L 614.0018 223.1929 L 615.8894 224.294 L 617.1871 226.3388 L 619.9594 225.9456 L 621.847 220.8334 L 623.7346 217.137 L 626.3889 217.2943 L 629.0433 216.1145 L 633.5853 211.6316 L 635.9447 211.7102 L 641.4304 214.9348 L 642.7871 215.2494 L 642.3742 217.137 L 638.1862 219.4178 L 633.3493 223.8221 L 628.5714 225.0804 L 628.2765 229.7993 L 626.6839 231.2937 L 623.0857 232.0801 L 618.6618 236.3271 L 615.5355 242.2258 L 611.2885 245.7649 L 605.6258 249.776 L 604.918 251.1917 L 607.1594 253.3152 L 612.4682 253.4725 L 617.541 257.4835 Z M 576.8406 266.2135 L 575.7198 264.4832 L 576.0147 262.6743 L 571.2369 261.3373 L 569.4083 263.4608 L 568.4645 267.5505 L 572.6525 270.4605 L 576.8406 266.2135 Z" fill="#000" fill-opacity="1" stroke="#000" stroke-width="0" paint-order="fill" stroke-opacity="1" stroke-dasharray="" stroke-linecap="butt" stroke-linejoin="miter" stroke-miterlimit="10" clip-path="none" style="filter: url(#f1)"/>
<path d="M 683.6055 271.1683 L 687.2627 269.674 L 688.3834 267.2359 L 690.153 269.1235 L 694.0461 269.674 L 694.518 271.7188 L 696.9364 272.1907 L 700.1217 275.6513 L 703.2479 276.2018 L 708.0258 275.1794 L 709.5594 275.4153 L 709.8544 277.6961 L 714.5733 274.5502 L 716.6378 276.0445 L 720 275.7299 L 719.3512 278.4039 L 714.3373 281.3926 L 711.329 283.8307 L 707.4359 285.5609 L 706.6101 290.3585 L 703.4839 290.5944 L 703.1889 292.9539 L 700.8885 294.3695 L 698.0571 292.8752 L 695.4028 292.3247 L 692.6304 290.1225 L 691.5687 290.6731 L 692.5124 295.156 L 695.1078 297.5155 L 694.9309 300.0322 L 693.4562 301.4479 L 689.4452 299.9536 L 687.6756 298.3019 L 686.9088 293.3471 L 681.482 291.8528 L 673.3419 291.5382 L 670.8645 288.7069 L 665.2608 287.6844 L 664.671 288.8642 L 661.8396 285.089 L 662.7834 283.9093 L 661.6037 281.5499 L 663.6092 279.1118 L 667.3253 277.6175 L 673.283 276.7523 L 678.2968 277.3815 L 683.0157 276.2018 L 683.6055 271.1683 Z" fill="#000" fill-opacity="1" stroke="#000" stroke-width="0" paint-order="fill" stroke-opacity="1" stroke-dasharray="" stroke-linecap="butt" stroke-linejoin="miter" stroke-miterlimit="10" clip-path="none" style="filter: url(#f1)"/>
<path d="M 661.8396 285.089 L 655.6461 288.6282 L 651.753 293.819 L 650.9272 294.0549 L 642.7281 290.8304 L 644.8516 287.3698 L 640.6046 287.999 L 637.4194 287.4485 L 635.8267 289.1788 L 633.7622 289.336 L 631.2258 292.0101 L 631.4618 289.8866 L 626.4479 288.6282 L 625.9171 286.3474 L 628.8074 287.5271 L 628.4535 286.1115 L 618.7207 276.9883 L 618.1899 271.011 L 616.2433 268.4156 L 616.7742 264.4832 L 615.4175 264.0113 L 615.2995 261.9665 L 617.541 257.4835 L 623.2627 253.8657 L 625.976 254.7308 L 628.3945 258.1913 L 628.6894 263.3035 L 629.3383 264.7978 L 631.4618 264.09 L 634.9419 266.6067 L 639.071 266.3708 L 642.8461 267.6291 L 645.2055 269.9099 L 645.0876 266.2921 L 646.6802 265.7416 L 649.2756 269.2021 L 650.3963 266.9213 L 653.1687 268.9662 L 653.9355 266.3708 L 652.8147 257.7195 L 653.4636 257.1689 L 657.1207 259.2138 L 659.2442 257.7195 L 660.6599 252.0568 L 658.7724 249.1468 L 660.5419 246.0795 L 661.8986 246.7874 L 661.8986 251.6635 L 664.8479 250.8771 L 669.6258 257.1689 L 670.5696 262.9889 L 674.4627 262.5956 L 676.7631 264.2473 L 679.3585 261.9665 L 681.777 263.1462 L 683.6055 271.1683 L 683.0157 276.2018 L 678.2968 277.3815 L 673.283 276.7523 L 667.3253 277.6175 L 663.6092 279.1118 L 661.6037 281.5499 L 662.7834 283.9093 L 661.8396 285.089 Z M 625.8581 279.5837 L 624.7373 277.6175 L 622.6728 277.6961 L 625.2682 280.2915 L 625.8581 279.5837 Z" fill="#000" fill-opacity="1" stroke="#000" stroke-width="0" paint-order="fill" stroke-opacity="1" stroke-dasharray="" stroke-linecap="butt" stroke-linejoin="miter" stroke-miterlimit="10" clip-path="none" style="filter: url(#f1)"/>
<path d="M 553.6 323.7053 L 551.3585 324.8064 L 555.8415 327.1658 L 553.8949 330.4691 L 554.8977 335.1093 L 554.5438 340.3788 L 553.718 341.4798 L 553.8359 349.5806 L 553.2461 351.7827 L 550.8277 353.9849 L 550.8277 355.6365 L 547.7604 356.8162 L 543.9853 357.1308 L 540.859 356.187 L 535.1373 356.3443 L 521.9244 353.5917 L 518.7392 354.2208 L 515.318 356.9735 L 512.3097 357.6027 L 511.9558 360.5913 L 509.7733 361.0632 L 505.1134 357.3668 L 504.1106 355.8725 L 504.2876 351.6254 L 506.647 351.1536 L 506.647 346.9066 L 511.4839 344.1539 L 509.5373 338.4912 L 494.4959 336.2104 L 492.6083 332.5926 L 489.541 332.6712 L 489.3641 329.9185 L 490.6618 327.5591 L 489.541 324.9637 L 488.1253 323.9413 L 486.9456 317.7281 L 487.5355 315.29 L 486.5327 312.6159 L 476.623 312.2227 L 481.8728 300.5827 L 482.8166 297.9087 L 481.4599 295.392 L 480.988 292.246 L 477.6258 291.4596 L 476.0922 289.7293 L 475.2074 282.8082 L 475.9152 281.3926 L 480.3982 279.1118 L 482.5217 279.6623 L 517.1465 275.7299 L 520.4498 276.9096 L 524.1659 274.5502 L 526.8203 278.6399 L 528.177 282.1791 L 531.2442 280.842 L 530.7134 283.5161 L 531.5392 284.4599 L 530.4184 290.5944 L 527.2332 293.819 L 530.1825 294.8414 L 533.7806 298.066 L 537.9687 300.6614 L 537.5558 303.2568 L 534.5475 304.3579 L 534.4885 307.5038 L 536.553 308.0543 L 532.7189 318.6718 L 533.3088 322.447 L 542.9825 322.211 L 554.0719 318.7505 L 553.0691 322.7615 L 553.6 323.7053 Z" fill="#000" fill-opacity="1" stroke="#000" stroke-width="0" paint-order="fill" stroke-opacity="1" stroke-dasharray="" stroke-linecap="butt" stroke-linejoin="miter" stroke-miterlimit="10" clip-path="none" style="filter: url(#f1)"/>
<path d="M 555.8415 327.1658 L 564.5714 324.8064 L 566.459 325.9861 L 566.6359 328.7388 L 562.9788 328.7388 L 560.5014 330.4691 L 558.9088 328.5029 L 559.7346 332.7499 L 563.3917 337.2328 L 562.035 339.1204 L 559.4396 334.0082 L 558.3779 333.9296 L 560.0295 337.7047 L 558.7318 341.2439 L 556.1954 339.3563 L 554.5438 340.3788 L 554.8977 335.1093 L 553.8949 330.4691 L 555.8415 327.1658 Z M 569.7622 320.9526 L 567.6387 320.3235 L 561.5631 321.7391 L 559.6166 322.9188 L 556.4903 322.8402 L 553.6 323.7053 L 553.0691 322.7615 L 554.0719 318.7505 L 542.9825 322.211 L 533.3088 322.447 L 532.7189 318.6718 L 536.553 308.0543 L 534.4885 307.5038 L 534.5475 304.3579 L 537.5558 303.2568 L 537.9687 300.6614 L 545.5189 304.0433 L 547.8783 302.313 L 550.4147 303.0208 L 551.4765 299.5603 L 550.6507 297.2009 L 548.9991 296.493 L 548.0553 291.3809 L 548.5862 287.4485 L 551.4175 285.325 L 553.423 286.9766 L 555.1336 290.4371 L 558.024 290.909 L 563.6866 296.8076 L 563.9816 298.4592 L 565.9281 297.8301 L 565.2793 299.3244 L 567.5207 298.9311 L 569.7032 301.8411 L 568.8184 305.6162 L 570.824 308.6835 L 569.7622 311.1216 L 569.2903 315.7619 L 570.3521 318.2786 L 569.7622 320.9526 Z" fill="#000" fill-opacity="1" stroke="#000" stroke-width="0" paint-order="fill" stroke-opacity="1" stroke-dasharray="" stroke-linecap="butt" stroke-linejoin="miter" stroke-miterlimit="10" clip-path="none" style="filter: url(#f1)"/>
<path d="M 393.1576 392.1293 L 391.0341 390.0844 L 385.9023 391.972 L 383.6608 391.1855 L 367.7346 379.9388 L 365.3751 377.5007 L 361.2461 371.7594 L 358.8276 369.3999 L 325.1465 345.1763 L 319.8968 339.199 L 318.717 333.9296 L 319.4249 331.0196 L 318.1862 327.4018 L 317.8323 324.0986 L 316.5935 321.1886 L 316.2986 318.1999 L 310.0461 314.3462 L 317.9502 304.5938 L 319.8968 300.3468 L 318.3041 296.729 L 312.2286 289.8079 L 320.6636 285.7182 L 320.6636 285.089 L 310.223 270.1459 L 323.377 265.191 L 326.5032 265.2697 L 328.5677 269.674 L 334.7613 277.1456 L 339.7751 286.1115 L 348.859 289.336 L 354.6396 292.5606 L 365.906 299.4817 L 368.0885 303.3354 L 372.5714 301.7625 L 375.1668 297.6728 L 377.3493 292.9539 L 379.4728 291.0663 L 381.7143 293.0325 L 382.0092 298.066 L 384.1327 299.639 L 394.2783 300.74 L 395.1041 299.8749 L 396.1659 295.392 L 398.1714 294.5268 L 403.0673 294.2122 L 405.8986 293.3471 L 407.0783 291.5382 L 407.8452 292.7966 L 409.6737 300.5827 L 412.3281 302.313 L 416.0442 303.1781 L 427.3696 303.65 L 429.1982 303.0995 L 428.3723 306.2454 L 428.4903 312.2227 L 425.2461 311.9867 L 423.5945 316.7056 L 422.1198 318.3572 L 420.9401 321.9751 L 416.5161 321.9751 L 413.3309 320.4021 L 410.2046 321.5032 L 411.2664 324.7278 L 410.6175 328.031 L 412.5051 330.3904 L 409.6737 331.4915 L 407.9631 335.2666 L 403.8341 338.3339 L 400.8258 343.7606 L 404.247 348.7941 L 408.8479 351.8614 L 410.4406 351.1536 L 415.9853 353.8276 L 417.5189 359.0184 L 421.1171 361.6138 L 422.1198 365.4675 L 416.6341 370.8156 L 414.3926 371.7594 L 411.5023 375.0626 L 411.0304 376.9502 L 412.977 379.7815 L 412.5641 380.7253 L 398.9382 386.2307 L 397.1687 387.5677 L 393.1576 392.1293 Z" fill="#000" fill-opacity="1" stroke="#000" stroke-width="0" paint-order="fill" stroke-opacity="1" stroke-dasharray="" stroke-linecap="butt" stroke-linejoin="miter" stroke-miterlimit="10" clip-path="none" style="filter: url(#f1)"/>
<path d="M 312.2286 289.8079 L 318.3041 296.729 L 319.8968 300.3468 L 317.9502 304.5938 L 310.0461 314.3462 L 307.6276 309.7059 L 306.8608 306.56 L 304.7963 303.8073 L 302.6138 295.3133 L 302.2009 288.8642 L 298.8387 283.3588 L 290.6396 276.9883 L 283.7972 274.4715 L 281.6147 274.7075 L 280.671 277.5388 L 276.6599 281.3926 L 273.7696 280.6847 L 269.9945 277.9321 L 265.4525 278.8758 L 263.6829 276.9096 L 261.1465 276.2018 L 253.6553 276.5164 L 249.1134 277.9321 L 246.8719 277.9321 L 244.5124 276.6737 L 240.3834 272.8199 L 232.8922 268.5729 L 231.6535 266.2921 L 232.2433 262.3597 L 235.8415 258.9778 L 232.1253 252.1354 L 231.8304 250.4052 L 233.8359 248.3603 L 238.3189 250.0119 L 238.9677 247.8884 L 235.4286 244.5066 L 236.3723 242.8549 L 235.7825 241.046 L 238.4958 240.2596 L 241.3272 238.2147 L 247.2258 240.2596 L 247.2848 243.5628 L 250.3521 249.776 L 254.0682 250.8771 L 255.012 253.7084 L 257.0765 256.8543 L 265.6295 265.1124 L 267.4581 265.8202 L 269.8765 268.4156 L 273.5336 269.674 L 276.365 274.1569 L 279.6092 274.3929 L 281.1429 271.5615 L 283.0304 270.0672 L 285.7438 269.9099 L 292.8221 271.7975 L 298.4258 275.4153 L 304.6783 282.4937 L 309.0433 289.7293 L 312.2286 289.8079 Z" fill="#000" fill-opacity="1" stroke="#000" stroke-width="0" paint-order="fill" stroke-opacity="1" stroke-dasharray="" stroke-linecap="butt" stroke-linejoin="miter" stroke-miterlimit="10" clip-path="none" style="filter: url(#f1)"/>
<path d="M 310.223 270.1459 L 320.6636 285.089 L 320.6636 285.7182 L 312.2286 289.8079 L 309.0433 289.7293 L 304.6783 282.4937 L 298.4258 275.4153 L 292.8221 271.7975 L 285.7438 269.9099 L 283.0304 270.0672 L 281.1429 271.5615 L 279.6092 274.3929 L 276.365 274.1569 L 273.5336 269.674 L 269.8765 268.4156 L 267.4581 265.8202 L 265.6295 265.1124 L 257.0765 256.8543 L 255.012 253.7084 L 254.0682 250.8771 L 250.3521 249.776 L 247.2848 243.5628 L 247.2258 240.2596 L 241.3272 238.2147 L 238.4958 240.2596 L 235.7825 241.046 L 236.3723 242.8549 L 235.4286 244.5066 L 233.541 242.1471 L 227.8194 240.5741 L 227.4654 238.4506 L 230.3558 237.5069 L 229.7069 233.0239 L 230.1198 230.7431 L 232.0664 229.5634 L 231.8304 228.0691 L 229.412 226.8107 L 226.1088 222.6423 L 219.6203 222.0918 L 211.8931 223.0356 L 209.0617 222.4851 L 207.7051 220.8334 L 204.9917 220.2043 L 203.517 218.6313 L 202.4553 213.0473 L 199.388 209.9013 L 196.3207 210.6878 L 191.13 208.9576 L 188.8295 206.5981 L 181.4562 196.8457 L 179.8636 197.3963 L 179.1558 201.5646 L 176.7963 203.3735 L 173.0802 202.587 L 169.2461 200.6995 L 163.5834 202.9016 L 163.9963 205.2611 L 169.659 208.8003 L 174.024 217.6089 L 175.9705 220.2829 L 172.9622 221.148 L 171.9594 220.3615 L 172.1364 215.9572 L 170.1309 213.6764 L 166.5917 211.7102 L 162.5806 211.7102 L 161.3419 209.9013 L 158.3336 209.9013 L 154.9124 212.89 L 155.7382 215.8786 L 153.6737 221.2267 L 151.3143 222.7996 L 152.0811 224.6086 L 144.4129 226.1029 L 143.5871 221.6986 L 140.2249 218.8672 L 138.6912 218.5526 L 135.7419 215.8 L 132.6747 216.3505 L 129.6664 218.3167 L 128.3097 220.5975 L 122.529 236.0125 L 117.9871 238.6866 L 118.341 244.5852 L 117.5742 249.6187 L 119.1668 254.2589 L 119.1668 258.8205 L 120.9364 262.517 L 124.0627 264.09 L 120.8774 266.2135 L 118.1051 269.438 L 110.1419 267.0786 L 80 263.0675 L 95.1594 79.7385 L 95.2184 79.6599 L 148.7779 66.8402 L 166.4737 62.5932 L 185.9982 58.0316 L 188.0037 58.8967 L 186.2341 64.7953 L 181.2793 71.1659 L 179.0378 78.6374 L 174.0829 88.8617 L 173.3751 94.0525 L 176.0295 101.996 L 175.2627 104.67 L 172.7852 108.4451 L 173.3751 112.2989 L 174.9088 114.0291 L 177.976 114.2651 L 183.3438 110.5686 L 189.3604 102.7824 L 189.1244 101.1308 L 186.2341 100.8162 L 187.4728 97.5917 L 189.4194 97.3557 L 190.835 99.7152 L 192.6636 98.85 L 191.3659 96.2546 L 191.9558 93.4233 L 191.4839 89.3336 L 193.1355 89.019 L 194.6101 84.3788 L 189.2424 87.1314 L 188.1806 85.1652 L 189.9502 81.3901 L 194.6101 77.0645 L 192.2507 74.5477 L 191.3659 69.4356 L 191.5429 66.6043 L 193.0765 62.7505 L 216.671 80.6036 L 213.7806 86.5809 L 211.8341 89.1763 L 210.8903 92.6368 L 208.3539 96.4906 L 206.9972 100.1084 L 208.059 104.8273 L 211.8931 109.7821 L 218.2636 116.7818 L 221.8028 119.7705 L 221.3309 123.3883 L 219.6203 124.4894 L 217.4968 128.815 L 217.9687 130.2307 L 226.3447 129.5228 L 231.2995 126.8488 L 232.4203 125.0399 L 230.3558 123.7029 L 231.5355 121.1075 L 235.2516 120.7142 L 236.3134 116.7818 L 235.9005 112.6135 L 234.4258 105.9284 L 237.1982 101.4454 L 237.4931 96.0187 L 271.2332 120.2423 L 272.7668 122.6804 L 273.4157 127.6353 L 275.4212 131.0958 L 283.2074 139.9044 L 304.2654 165.2291 L 305.7401 165.8583 L 309.5152 172.5434 L 311.2848 174.2737 L 321.0175 177.105 L 321.3714 178.5207 L 311.3438 197.239 L 301.847 215.1708 L 299.7825 219.8897 L 298.8977 231.2937 L 303.7346 240.8101 L 295.1816 245.8436 L 294.6507 247.8884 L 310.223 270.1459 Z" fill="#000" fill-opacity="1" stroke="#000" stroke-width="0" paint-order="fill" stroke-opacity="1" stroke-dasharray="" stroke-linecap="butt" stroke-linejoin="miter" stroke-miterlimit="10" clip-path="none" style="filter: url(#f1)"/>
<path d="M 480.3982 279.1118 L 475.9152 281.3926 L 475.2074 282.8082 L 476.0922 289.7293 L 477.6258 291.4596 L 480.988 292.246 L 481.4599 295.392 L 482.8166 297.9087 L 481.8728 300.5827 L 476.623 312.2227 L 475.3253 308.7622 L 472.73 306.0095 L 466.7134 308.4476 L 463.4691 307.0319 L 461.0507 310.6497 L 461.8175 313.9529 L 460.4018 316.2337 L 461.1097 323.3121 L 458.3963 330.5477 L 460.8737 331.6488 L 457.6295 335.1093 L 449.4894 337.1542 L 442.4111 334.7161 L 440.7594 332.7499 L 436.0406 331.0196 L 435.0378 331.4129 L 433.4452 336.4463 L 434.4479 337.3901 L 432.8553 343.1314 L 429.906 343.446 L 426.9567 342.4236 L 425.9539 344.3898 L 421.8249 345.4122 L 421.353 346.6706 L 423.8894 349.3446 L 425.1871 353.5917 L 423.9484 358.0746 L 426.6028 363.9732 L 425.8949 364.4451 L 422.1198 365.4675 L 421.1171 361.6138 L 417.5189 359.0184 L 415.9853 353.8276 L 410.4406 351.1536 L 408.8479 351.8614 L 404.247 348.7941 L 400.8258 343.7606 L 403.8341 338.3339 L 407.9631 335.2666 L 409.6737 331.4915 L 412.5051 330.3904 L 410.6175 328.031 L 411.2664 324.7278 L 410.2046 321.5032 L 413.3309 320.4021 L 416.5161 321.9751 L 420.9401 321.9751 L 422.1198 318.3572 L 423.5945 316.7056 L 425.2461 311.9867 L 428.4903 312.2227 L 428.3723 306.2454 L 429.1982 303.0995 L 427.3696 303.65 L 416.0442 303.1781 L 412.3281 302.313 L 409.6737 300.5827 L 407.8452 292.7966 L 407.0783 291.5382 L 405.8986 293.3471 L 403.0673 294.2122 L 398.1714 294.5268 L 396.1659 295.392 L 395.1041 299.8749 L 394.2783 300.74 L 384.1327 299.639 L 382.0092 298.066 L 381.7143 293.0325 L 379.4728 291.0663 L 377.3493 292.9539 L 375.1668 297.6728 L 372.5714 301.7625 L 368.0885 303.3354 L 365.906 299.4817 L 354.6396 292.5606 L 348.859 289.336 L 339.7751 286.1115 L 334.7613 277.1456 L 328.5677 269.674 L 326.5032 265.2697 L 323.377 265.191 L 310.223 270.1459 L 294.6507 247.8884 L 295.1816 245.8436 L 303.7346 240.8101 L 298.8977 231.2937 L 299.7825 219.8897 L 301.847 215.1708 L 311.3438 197.239 L 321.3714 178.5207 L 321.0175 177.105 L 311.2848 174.2737 L 309.5152 172.5434 L 305.7401 165.8583 L 321.9023 163.027 L 348.0332 158.78 L 391.6829 162.3192 L 392.9217 162.0046 L 406.8424 153.7465 L 409.2608 153.3533 L 410.4995 154.4543 L 418.4627 164.4427 L 422.1198 168.1391 L 431.0857 173.8804 L 441.8212 194.4863 L 442.4111 194.5649 L 452.6747 188.509 L 451.9078 215.9572 L 450.5512 217.8448 L 450.9641 237.2709 L 451.377 238.0574 L 469.2498 237.5855 L 471.0783 250.1692 L 473.9097 262.4384 L 477.6848 276.9096 L 480.3982 279.1118 Z" fill="#000" fill-opacity="1" stroke="#000" stroke-width="0" paint-order="fill" stroke-opacity="1" stroke-dasharray="" stroke-linecap="butt" stroke-linejoin="miter" stroke-miterlimit="10" clip-path="none" style="filter: url(#f1)"/>
<path d="M 509.7733 361.0632 L 509.0654 363.58 L 508.2986 370.8156 L 507.2369 371.0516 L 498.035 369.0854 L 495.9705 369.0854 L 495.0267 371.2875 L 489.482 371.1302 L 489.482 368.2989 L 488.4793 366.0967 L 481.3419 365.1529 L 479.0415 366.3327 L 477.5078 368.6921 L 474.7355 369.9505 L 469.9576 367.2764 L 463.5871 368.8494 L 458.6323 371.5235 L 454.6802 371.0516 L 453.7954 367.1978 L 449.6074 363.8159 L 447.8378 360.3554 L 445.3014 360.5127 L 445.1834 362.243 L 442.8829 363.8946 L 426.6028 363.9732 L 423.9484 358.0746 L 425.1871 353.5917 L 423.8894 349.3446 L 421.353 346.6706 L 421.8249 345.4122 L 425.9539 344.3898 L 426.9567 342.4236 L 429.906 343.446 L 432.8553 343.1314 L 434.4479 337.3901 L 433.4452 336.4463 L 435.0378 331.4129 L 436.0406 331.0196 L 440.7594 332.7499 L 442.4111 334.7161 L 449.4894 337.1542 L 457.6295 335.1093 L 460.8737 331.6488 L 458.3963 330.5477 L 461.1097 323.3121 L 460.4018 316.2337 L 461.8175 313.9529 L 461.0507 310.6497 L 463.4691 307.0319 L 466.7134 308.4476 L 472.73 306.0095 L 475.3253 308.7622 L 476.623 312.2227 L 486.5327 312.6159 L 487.5355 315.29 L 486.9456 317.7281 L 488.1253 323.9413 L 489.541 324.9637 L 490.6618 327.5591 L 489.3641 329.9185 L 489.541 332.6712 L 492.6083 332.5926 L 494.4959 336.2104 L 509.5373 338.4912 L 511.4839 344.1539 L 506.647 346.9066 L 506.647 351.1536 L 504.2876 351.6254 L 504.1106 355.8725 L 505.1134 357.3668 L 509.7733 361.0632 Z" fill="#000" fill-opacity="1" stroke="#000" stroke-width="0" paint-order="fill" stroke-opacity="1" stroke-dasharray="" stroke-linecap="butt" stroke-linejoin="miter" stroke-miterlimit="10" clip-path="none" style="filter: url(#f1)"/>
<path d="M 507.2369 371.0516 L 507.1189 374.5121 L 508.2396 375.5345 L 512.8995 376.9502 L 516.0258 376.9502 L 519.9779 379.5456 L 520.0369 384.7364 L 514.8461 386.3093 L 514.1382 387.9609 L 515.9668 392.9944 L 516.2028 396.5336 L 515.2 400.0728 L 511.6018 398.7357 L 509.7733 399.9941 L 507.7088 404.6344 L 504.2286 407.0725 L 501.1023 411.5554 L 500.2765 416.5102 L 495.6756 420.7572 L 491.6645 422.5662 L 489.3051 427.5996 L 484.7041 432.3185 L 483.3475 437.5093 L 482.2267 438.2958 L 481.6959 436.9588 L 478.9235 435.3858 L 474.4406 435.1499 L 469.1908 433.0264 L 466.1235 429.8018 L 462.2894 428.5434 L 458.6912 426.184 L 456.0959 425.8694 L 452.1438 424.0605 L 449.7253 424.4537 L 446.953 426.6559 L 444.2986 426.9705 L 441.6442 426.1053 L 425.8949 415.9597 L 416.929 408.0949 L 414.2747 406.4433 L 408.612 404.5557 L 403.5982 401.7244 L 395.3401 394.9606 L 393.1576 392.1293 L 397.1687 387.5677 L 398.9382 386.2307 L 412.5641 380.7253 L 412.977 379.7815 L 411.0304 376.9502 L 411.5023 375.0626 L 414.3926 371.7594 L 416.6341 370.8156 L 422.1198 365.4675 L 425.8949 364.4451 L 426.6028 363.9732 L 442.8829 363.8946 L 445.1834 362.243 L 445.3014 360.5127 L 447.8378 360.3554 L 449.6074 363.8159 L 453.7954 367.1978 L 454.6802 371.0516 L 458.6323 371.5235 L 463.5871 368.8494 L 469.9576 367.2764 L 474.7355 369.9505 L 477.5078 368.6921 L 479.0415 366.3327 L 481.3419 365.1529 L 488.4793 366.0967 L 489.482 368.2989 L 489.482 371.1302 L 495.0267 371.2875 L 495.9705 369.0854 L 498.035 369.0854 L 507.2369 371.0516 Z" fill="#000" fill-opacity="1" stroke="#000" stroke-width="0" paint-order="fill" stroke-opacity="1" stroke-dasharray="" stroke-linecap="butt" stroke-linejoin="miter" stroke-miterlimit="10" clip-path="none" style="filter: url(#f1)"/>
<path d="M 482.2267 438.2958 L 483.3475 437.5093 L 484.7041 432.3185 L 489.3051 427.5996 L 491.6645 422.5662 L 495.6756 420.7572 L 500.2765 416.5102 L 501.1023 411.5554 L 504.2286 407.0725 L 507.7088 404.6344 L 509.7733 399.9941 L 511.6018 398.7357 L 515.2 400.0728 L 516.2028 396.5336 L 515.9668 392.9944 L 514.1382 387.9609 L 514.8461 386.3093 L 520.0369 384.7364 L 520.7447 385.3655 L 526.7023 385.8374 L 530.5954 384.2645 L 533.3677 385.2082 L 535.9041 384.3431 L 539.2074 389.4552 L 539.6203 391.5787 L 537.7327 394.0955 L 535.7272 394.646 L 536.2581 397.0841 L 534.8424 399.5222 L 535.6092 402.2749 L 535.9631 407.2297 L 537.3198 409.2746 L 537.9097 412.3419 L 541.5078 416.9821 L 547.5244 421.2291 L 548.8221 424.611 L 547.5244 430.3523 L 545.106 436.0936 L 540.2691 438.3744 L 538.9124 443.5652 L 535.1963 450.093 L 531.3032 454.9692 L 529.8286 457.9579 L 528.8258 463.2273 L 530.0645 469.2046 L 528.7668 475.0245 L 528 473.4516 L 522.8092 472.0359 L 519.388 473.3729 L 518.5032 471.3281 L 516.7926 471.1708 L 513.3714 474.238 L 509.0654 475.9683 L 507.3548 475.8897 L 506.0571 473.3729 L 502.6949 471.6426 L 501.5152 468.7327 L 497.8581 466.6878 L 492.3724 467.7102 L 487.2406 468.1821 L 485.6479 469.2046 L 481.4599 468.1821 L 478.8055 468.4967 L 477.8028 466.8451 L 479.6903 464.1711 L 477.4488 460.6319 L 478.2747 455.4411 L 477.9797 447.5763 L 482.6396 439.3182 L 482.2267 438.2958 Z" fill="#000" fill-opacity="1" stroke="#000" stroke-width="0" paint-order="fill" stroke-opacity="1" stroke-dasharray="" stroke-linecap="butt" stroke-linejoin="miter" stroke-miterlimit="10" clip-path="none" style="filter: url(#f1)"/>
<path d="M 672.6931 327.9523 L 669.0359 326.458 L 672.3982 323.9413 L 673.5189 324.0199 L 672.6931 327.9523 Z M 649.6885 323.1548 L 651.694 322.211 L 652.3429 323.4694 L 650.1604 325.5929 L 652.1659 328.5029 L 651.871 330.705 L 648.3908 331.7274 L 646.2083 330.4691 L 644.8516 331.7274 L 644.2028 330.3118 L 645.5594 327.5591 L 645.2645 326.1434 L 643.259 325.4356 L 641.3714 322.0537 L 641.9613 318.7505 L 644.0258 318.4359 L 645.3825 320.9526 L 649.6885 323.1548 Z M 661.8396 285.089 L 664.671 288.8642 L 665.2608 287.6844 L 670.8645 288.7069 L 673.3419 291.5382 L 681.482 291.8528 L 686.9088 293.3471 L 687.6756 298.3019 L 685.3751 298.8525 L 683.0157 300.5041 L 682.1899 303.4927 L 678.1788 306.56 L 678.3558 308.0543 L 680.8922 310.0992 L 673.9908 310.3351 L 672.0442 314.0316 L 669.6258 316.0764 L 668.2691 315.9978 L 666.7945 311.2003 L 665.4378 311.3576 L 665.0249 313.7956 L 660.5419 313.1665 L 659.0083 311.2789 L 655.941 309.8632 L 652.8737 310.0205 L 651.1041 308.9981 L 649.9244 311.9867 L 644.2618 311.9867 L 642.1383 312.5373 L 640.8995 314.1102 L 636.7705 314.7394 L 631.5207 316.8629 L 628.3355 317.2562 L 626.6839 316.2337 L 625.1502 311.9081 L 623.1447 310.0205 L 620.9032 310.5711 L 618.1899 309.7846 L 618.5438 307.9757 L 617.1281 305.3016 L 618.7207 303.4141 L 621.2571 302.549 L 623.1447 299.639 L 631.2258 292.0101 L 633.7622 289.336 L 635.8267 289.1788 L 637.4194 287.4485 L 640.6046 287.999 L 644.8516 287.3698 L 642.7281 290.8304 L 650.9272 294.0549 L 651.753 293.819 L 655.6461 288.6282 L 661.8396 285.089 Z" fill="#ff0066" fill-opacity="1" stroke="#000000" stroke-width="0.4" paint-order="fill" stroke-opacity="1" stroke-dasharray="" stroke-linecap="butt" stroke-linejoin="miter" stroke-miterlimit="10" clip-path="none"/>
<path d="M 576.8406 266.2135 L 572.6525 270.4605 L 568.4645 267.5505 L 569.4083 263.4608 L 571.2369 261.3373 L 576.0147 262.6743 L 575.7198 264.4832 L 576.8406 266.2135 Z" fill="#f5fc98" fill-opacity="1" stroke="#000000" stroke-width="0.4" paint-order="fill" stroke-opacity="1" stroke-dasharray="" stroke-linecap="butt" stroke-linejoin="miter" stroke-miterlimit="10" clip-path="none"/>
<path d="M 617.541 257.4835 L 615.2995 261.9665 L 615.4175 264.0113 L 616.7742 264.4832 L 616.2433 268.4156 L 618.1899 271.011 L 618.7207 276.9883 L 615.1226 276.4377 L 614.5327 281.7858 L 612.6452 284.4599 L 606.3336 288.235 L 602.9714 291.3023 L 596.247 294.0549 L 593.3567 297.3582 L 590.3484 298.3019 L 584.1548 291.8528 L 581.3235 290.6731 L 578.3742 292.0887 L 577.0175 294.6841 L 577.4304 300.6614 L 574.5401 302.0771 L 573.3014 304.2006 L 575.012 306.6387 L 578.0203 312.9305 L 578.2562 316.4697 L 574.5991 316.4697 L 574.835 317.964 L 577.7253 320.2448 L 577.8433 321.5032 L 574.5991 322.2897 L 569.7622 320.9526 L 570.3521 318.2786 L 569.2903 315.7619 L 569.7622 311.1216 L 570.824 308.6835 L 568.8184 305.6162 L 569.7032 301.8411 L 567.5207 298.9311 L 565.2793 299.3244 L 565.9281 297.8301 L 563.9816 298.4592 L 563.6866 296.8076 L 558.024 290.909 L 555.1336 290.4371 L 553.423 286.9766 L 551.4175 285.325 L 553.541 283.5947 L 554.6618 279.505 L 558.083 276.9096 L 559.3806 274.6288 L 561.6811 273.921 L 565.0433 270.9324 L 565.2793 266.2135 L 564.2765 263.6967 L 570.824 258.5059 L 573.0654 258.5059 L 575.012 257.2476 L 577.1945 257.4835 L 577.0765 253.787 L 580.0258 252.1354 L 585.1576 247.0233 L 589.9945 245.1357 L 595.5982 243.8774 L 597.6037 241.1247 L 599.5502 240.1809 L 603.2664 236.4844 L 605.4488 231.8442 L 608.1622 229.5634 L 609.106 226.5748 L 614.0018 223.1929 L 615.8894 224.294 L 617.1871 226.3388 L 619.9594 225.9456 L 621.847 220.8334 L 623.7346 217.137 L 626.3889 217.2943 L 629.0433 216.1145 L 633.5853 211.6316 L 635.9447 211.7102 L 641.4304 214.9348 L 642.7871 215.2494 L 642.3742 217.137 L 638.1862 219.4178 L 633.3493 223.8221 L 628.5714 225.0804 L 628.2765 229.7993 L 626.6839 231.2937 L 623.0857 232.0801 L 618.6618 236.3271 L 615.5355 242.2258 L 611.2885 245.7649 L 605.6258 249.776 L 604.918 251.1917 L 607.1594 253.3152 L 612.4682 253.4725 L 617.541 257.4835 Z M 576.8406 266.2135 L 575.7198 264.4832 L 576.0147 262.6743 L 571.2369 261.3373 L 569.4083 263.4608 L 568.4645 267.5505 L 572.6525 270.4605 L 576.8406 266.2135 Z" fill="#f5fc98" fill-opacity="1" stroke="#000000" stroke-width="0.4" paint-order="fill" stroke-opacity="1" stroke-dasharray="" stroke-linecap="butt" stroke-linejoin="miter" stroke-miterlimit="10" clip-path="none"/>
<path d="M 683.6055 271.1683 L 687.2627 269.674 L 688.3834 267.2359 L 690.153 269.1235 L 694.0461 269.674 L 694.518 271.7188 L 696.9364 272.1907 L 700.1217 275.6513 L 703.2479 276.2018 L 708.0258 275.1794 L 709.5594 275.4153 L 709.8544 277.6961 L 714.5733 274.5502 L 716.6378 276.0445 L 720 275.7299 L 719.3512 278.4039 L 714.3373 281.3926 L 711.329 283.8307 L 707.4359 285.5609 L 706.6101 290.3585 L 703.4839 290.5944 L 703.1889 292.9539 L 700.8885 294.3695 L 698.0571 292.8752 L 695.4028 292.3247 L 692.6304 290.1225 L 691.5687 290.6731 L 692.5124 295.156 L 695.1078 297.5155 L 694.9309 300.0322 L 693.4562 301.4479 L 689.4452 299.9536 L 687.6756 298.3019 L 686.9088 293.3471 L 681.482 291.8528 L 673.3419 291.5382 L 670.8645 288.7069 L 665.2608 287.6844 L 664.671 288.8642 L 661.8396 285.089 L 662.7834 283.9093 L 661.6037 281.5499 L 663.6092 279.1118 L 667.3253 277.6175 L 673.283 276.7523 L 678.2968 277.3815 L 683.0157 276.2018 L 683.6055 271.1683 Z" fill="#ff0066" fill-opacity="1" stroke="#000000" stroke-width="0.4" paint-order="fill" stroke-opacity="1" stroke-dasharray="" stroke-linecap="butt" stroke-linejoin="miter" stroke-miterlimit="10" clip-path="none"/>
<path d="M 661.8396 285.089 L 655.6461 288.6282 L 651.753 293.819 L 650.9272 294.0549 L 642.7281 290.8304 L 644.8516 287.3698 L 640.6046 287.999 L 637.4194 287.4485 L 635.8267 289.1788 L 633.7622 289.336 L 631.2258 292.0101 L 631.4618 289.8866 L 626.4479 288.6282 L 625.9171 286.3474 L 628.8074 287.5271 L 628.4535 286.1115 L 618.7207 276.9883 L 618.1899 271.011 L 616.2433 268.4156 L 616.7742 264.4832 L 615.4175 264.0113 L 615.2995 261.9665 L 617.541 257.4835 L 623.2627 253.8657 L 625.976 254.7308 L 628.3945 258.1913 L 628.6894 263.3035 L 629.3383 264.7978 L 631.4618 264.09 L 634.9419 266.6067 L 639.071 266.3708 L 642.8461 267.6291 L 645.2055 269.9099 L 645.0876 266.2921 L 646.6802 265.7416 L 649.2756 269.2021 L 650.3963 266.9213 L 653.1687 268.9662 L 653.9355 266.3708 L 652.8147 257.7195 L 653.4636 257.1689 L 657.1207 259.2138 L 659.2442 257.7195 L 660.6599 252.0568 L 658.7724 249.1468 L 660.5419 246.0795 L 661.8986 246.7874 L 661.8986 251.6635 L 664.8479 250.8771 L 669.6258 257.1689 L 670.5696 262.9889 L 674.4627 262.5956 L 676.7631 264.2473 L 679.3585 261.9665 L 681.777 263.1462 L 683.6055 271.1683 L 683.0157 276.2018 L 678.2968 277.3815 L 673.283 276.7523 L 667.3253 277.6175 L 663.6092 279.1118 L 661.6037 281.5499 L 662.7834 283.9093 L 661.8396 285.089 Z M 625.8581 279.5837 L 624.7373 277.6175 L 622.6728 277.6961 L 625.2682 280.2915 L 625.8581 279.5837 Z" fill="#8cd5f7" fill-opacity="1" stroke="#000000" stroke-width="0.4" paint-order="fill" stroke-opacity="1" stroke-dasharray="" stroke-linecap="butt" stroke-linejoin="miter" stroke-miterlimit="10" clip-path="none"/>
<path d="M 553.6 323.7053 L 551.3585 324.8064 L 555.8415 327.1658 L 553.8949 330.4691 L 554.8977 335.1093 L 554.5438 340.3788 L 553.718 341.4798 L 553.8359 349.5806 L 553.2461 351.7827 L 550.8277 353.9849 L 550.8277 355.6365 L 547.7604 356.8162 L 543.9853 357.1308 L 540.859 356.187 L 535.1373 356.3443 L 521.9244 353.5917 L 518.7392 354.2208 L 515.318 356.9735 L 512.3097 357.6027 L 511.9558 360.5913 L 509.7733 361.0632 L 505.1134 357.3668 L 504.1106 355.8725 L 504.2876 351.6254 L 506.647 351.1536 L 506.647 346.9066 L 511.4839 344.1539 L 509.5373 338.4912 L 494.4959 336.2104 L 492.6083 332.5926 L 489.541 332.6712 L 489.3641 329.9185 L 490.6618 327.5591 L 489.541 324.9637 L 488.1253 323.9413 L 486.9456 317.7281 L 487.5355 315.29 L 486.5327 312.6159 L 476.623 312.2227 L 481.8728 300.5827 L 482.8166 297.9087 L 481.4599 295.392 L 480.988 292.246 L 477.6258 291.4596 L 476.0922 289.7293 L 475.2074 282.8082 L 475.9152 281.3926 L 480.3982 279.1118 L 482.5217 279.6623 L 517.1465 275.7299 L 520.4498 276.9096 L 524.1659 274.5502 L 526.8203 278.6399 L 528.177 282.1791 L 531.2442 280.842 L 530.7134 283.5161 L 531.5392 284.4599 L 530.4184 290.5944 L 527.2332 293.819 L 530.1825 294.8414 L 533.7806 298.066 L 537.9687 300.6614 L 537.5558 303.2568 L 534.5475 304.3579 L 534.4885 307.5038 L 536.553 308.0543 L 532.7189 318.6718 L 533.3088 322.447 L 542.9825 322.211 L 554.0719 318.7505 L 553.0691 322.7615 L 553.6 323.7053 Z" fill="#ff0066" fill-opacity="1" stroke="#000000" stroke-width="0.4" paint-order="fill" stroke-opacity="1" stroke-dasharray="" stroke-linecap="butt" stroke-linejoin="miter" stroke-miterlimit="10" clip-path="none"/>
<path d="M 555.8415 327.1658 L 564.5714 324.8064 L 566.459 325.9861 L 566.6359 328.7388 L 562.9788 328.7388 L 560.5014 330.4691 L 558.9088 328.5029 L 559.7346 332.7499 L 563.3917 337.2328 L 562.035 339.1204 L 559.4396 334.0082 L 558.3779 333.9296 L 560.0295 337.7047 L 558.7318 341.2439 L 556.1954 339.3563 L 554.5438 340.3788 L 554.8977 335.1093 L 553.8949 330.4691 L 555.8415 327.1658 Z M 569.7622 320.9526 L 567.6387 320.3235 L 561.5631 321.7391 L 559.6166 322.9188 L 556.4903 322.8402 L 553.6 323.7053 L 553.0691 322.7615 L 554.0719 318.7505 L 542.9825 322.211 L 533.3088 322.447 L 532.7189 318.6718 L 536.553 308.0543 L 534.4885 307.5038 L 534.5475 304.3579 L 537.5558 303.2568 L 537.9687 300.6614 L 545.5189 304.0433 L 547.8783 302.313 L 550.4147 303.0208 L 551.4765 299.5603 L 550.6507 297.2009 L 548.9991 296.493 L 548.0553 291.3809 L 548.5862 287.4485 L 551.4175 285.325 L 553.423 286.9766 L 555.1336 290.4371 L 558.024 290.909 L 563.6866 296.8076 L 563.9816 298.4592 L 565.9281 297.8301 L 565.2793 299.3244 L 567.5207 298.9311 L 569.7032 301.8411 L 568.8184 305.6162 L 570.824 308.6835 L 569.7622 311.1216 L 569.2903 315.7619 L 570.3521 318.2786 L 569.7622 320.9526 Z" fill="#8cd5f7" fill-opacity="1" stroke="#000000" stroke-width="0.4" paint-order="fill" stroke-opacity="1" stroke-dasharray="" stroke-linecap="butt" stroke-linejoin="miter" stroke-miterlimit="10" clip-path="none"/>
<path d="M 393.1576 392.1293 L 391.0341 390.0844 L 385.9023 391.972 L 383.6608 391.1855 L 367.7346 379.9388 L 365.3751 377.5007 L 361.2461 371.7594 L 358.8276 369.3999 L 325.1465 345.1763 L 319.8968 339.199 L 318.717 333.9296 L 319.4249 331.0196 L 318.1862 327.4018 L 317.8323 324.0986 L 316.5935 321.1886 L 316.2986 318.1999 L 310.0461 314.3462 L 317.9502 304.5938 L 319.8968 300.3468 L 318.3041 296.729 L 312.2286 289.8079 L 320.6636 285.7182 L 320.6636 285.089 L 310.223 270.1459 L 323.377 265.191 L 326.5032 265.2697 L 328.5677 269.674 L 334.7613 277.1456 L 339.7751 286.1115 L 348.859 289.336 L 354.6396 292.5606 L 365.906 299.4817 L 368.0885 303.3354 L 372.5714 301.7625 L 375.1668 297.6728 L 377.3493 292.9539 L 379.4728 291.0663 L 381.7143 293.0325 L 382.0092 298.066 L 384.1327 299.639 L 394.2783 300.74 L 395.1041 299.8749 L 396.1659 295.392 L 398.1714 294.5268 L 403.0673 294.2122 L 405.8986 293.3471 L 407.0783 291.5382 L 407.8452 292.7966 L 409.6737 300.5827 L 412.3281 302.313 L 416.0442 303.1781 L 427.3696 303.65 L 429.1982 303.0995 L 428.3723 306.2454 L 428.4903 312.2227 L 425.2461 311.9867 L 423.5945 316.7056 L 422.1198 318.3572 L 420.9401 321.9751 L 416.5161 321.9751 L 413.3309 320.4021 L 410.2046 321.5032 L 411.2664 324.7278 L 410.6175 328.031 L 412.5051 330.3904 L 409.6737 331.4915 L 407.9631 335.2666 L 403.8341 338.3339 L 400.8258 343.7606 L 404.247 348.7941 L 408.8479 351.8614 L 410.4406 351.1536 L 415.9853 353.8276 L 417.5189 359.0184 L 421.1171 361.6138 L 422.1198 365.4675 L 416.6341 370.8156 L 414.3926 371.7594 L 411.5023 375.0626 L 411.0304 376.9502 L 412.977 379.7815 L 412.5641 380.7253 L 398.9382 386.2307 L 397.1687 387.5677 L 393.1576 392.1293 Z" fill="#ff0066" fill-opacity="1" stroke="#000000" stroke-width="0.4" paint-order="fill" stroke-opacity="1" stroke-dasharray="" stroke-linecap="butt" stroke-linejoin="miter" stroke-miterlimit="10" clip-path="none"/>
<path d="M 312.2286 289.8079 L 318.3041 296.729 L 319.8968 300.3468 L 317.9502 304.5938 L 310.0461 314.3462 L 307.6276 309.7059 L 306.8608 306.56 L 304.7963 303.8073 L 302.6138 295.3133 L 302.2009 288.8642 L 298.8387 283.3588 L 290.6396 276.9883 L 283.7972 274.4715 L 281.6147 274.7075 L 280.671 277.5388 L 276.6599 281.3926 L 273.7696 280.6847 L 269.9945 277.9321 L 265.4525 278.8758 L 263.6829 276.9096 L 261.1465 276.2018 L 253.6553 276.5164 L 249.1134 277.9321 L 246.8719 277.9321 L 244.5124 276.6737 L 240.3834 272.8199 L 232.8922 268.5729 L 231.6535 266.2921 L 232.2433 262.3597 L 235.8415 258.9778 L 232.1253 252.1354 L 231.8304 250.4052 L 233.8359 248.3603 L 238.3189 250.0119 L 238.9677 247.8884 L 235.4286 244.5066 L 236.3723 242.8549 L 235.7825 241.046 L 238.4958 240.2596 L 241.3272 238.2147 L 247.2258 240.2596 L 247.2848 243.5628 L 250.3521 249.776 L 254.0682 250.8771 L 255.012 253.7084 L 257.0765 256.8543 L 265.6295 265.1124 L 267.4581 265.8202 L 269.8765 268.4156 L 273.5336 269.674 L 276.365 274.1569 L 279.6092 274.3929 L 281.1429 271.5615 L 283.0304 270.0672 L 285.7438 269.9099 L 292.8221 271.7975 L 298.4258 275.4153 L 304.6783 282.4937 L 309.0433 289.7293 L 312.2286 289.8079 Z" fill="#8cd5f7" fill-opacity="1" stroke="#000000" stroke-width="0.4" paint-order="fill" stroke-opacity="1" stroke-dasharray="" stroke-linecap="butt" stroke-linejoin="miter" stroke-miterlimit="10" clip-path="none"/>
<path d="M 310.223 270.1459 L 320.6636 285.089 L 320.6636 285.7182 L 312.2286 289.8079 L 309.0433 289.7293 L 304.6783 282.4937 L 298.4258 275.4153 L 292.8221 271.7975 L 285.7438 269.9099 L 283.0304 270.0672 L 281.1429 271.5615 L 279.6092 274.3929 L 276.365 274.1569 L 273.5336 269.674 L 269.8765 268.4156 L 267.4581 265.8202 L 265.6295 265.1124 L 257.0765 256.8543 L 255.012 253.7084 L 254.0682 250.8771 L 250.3521 249.776 L 247.2848 243.5628 L 247.2258 240.2596 L 241.3272 238.2147 L 238.4958 240.2596 L 235.7825 241.046 L 236.3723 242.8549 L 235.4286 244.5066 L 233.541 242.1471 L 227.8194 240.5741 L 227.4654 238.4506 L 230.3558 237.5069 L 229.7069 233.0239 L 230.1198 230.7431 L 232.0664 229.5634 L 231.8304 228.0691 L 229.412 226.8107 L 226.1088 222.6423 L 219.6203 222.0918 L 211.8931 223.0356 L 209.0617 222.4851 L 207.7051 220.8334 L 204.9917 220.2043 L 203.517 218.6313 L 202.4553 213.0473 L 199.388 209.9013 L 196.3207 210.6878 L 191.13 208.9576 L 188.8295 206.5981 L 181.4562 196.8457 L 179.8636 197.3963 L 179.1558 201.5646 L 176.7963 203.3735 L 173.0802 202.587 L 169.2461 200.6995 L 163.5834 202.9016 L 163.9963 205.2611 L 169.659 208.8003 L 174.024 217.6089 L 175.9705 220.2829 L 172.9622 221.148 L 171.9594 220.3615 L 172.1364 215.9572 L 170.1309 213.6764 L 166.5917 211.7102 L 162.5806 211.7102 L 161.3419 209.9013 L 158.3336 209.9013 L 154.9124 212.89 L 155.7382 215.8786 L 153.6737 221.2267 L 151.3143 222.7996 L 152.0811 224.6086 L 144.4129 226.1029 L 143.5871 221.6986 L 140.2249 218.8672 L 138.6912 218.5526 L 135.7419 215.8 L 132.6747 216.3505 L 129.6664 218.3167 L 128.3097 220.5975 L 122.529 236.0125 L 117.9871 238.6866 L 118.341 244.5852 L 117.5742 249.6187 L 119.1668 254.2589 L 119.1668 258.8205 L 120.9364 262.517 L 124.0627 264.09 L 120.8774 266.2135 L 118.1051 269.438 L 110.1419 267.0786 L 80 263.0675 L 95.1594 79.7385 L 95.2184 79.6599 L 148.7779 66.8402 L 166.4737 62.5932 L 185.9982 58.0316 L 188.0037 58.8967 L 186.2341 64.7953 L 181.2793 71.1659 L 179.0378 78.6374 L 174.0829 88.8617 L 173.3751 94.0525 L 176.0295 101.996 L 175.2627 104.67 L 172.7852 108.4451 L 173.3751 112.2989 L 174.9088 114.0291 L 177.976 114.2651 L 183.3438 110.5686 L 189.3604 102.7824 L 189.1244 101.1308 L 186.2341 100.8162 L 187.4728 97.5917 L 189.4194 97.3557 L 190.835 99.7152 L 192.6636 98.85 L 191.3659 96.2546 L 191.9558 93.4233 L 191.4839 89.3336 L 193.1355 89.019 L 194.6101 84.3788 L 189.2424 87.1314 L 188.1806 85.1652 L 189.9502 81.3901 L 194.6101 77.0645 L 192.2507 74.5477 L 191.3659 69.4356 L 191.5429 66.6043 L 193.0765 62.7505 L 216.671 80.6036 L 213.7806 86.5809 L 211.8341 89.1763 L 210.8903 92.6368 L 208.3539 96.4906 L 206.9972 100.1084 L 208.059 104.8273 L 211.8931 109.7821 L 218.2636 116.7818 L 221.8028 119.7705 L 221.3309 123.3883 L 219.6203 124.4894 L 217.4968 128.815 L 217.9687 130.2307 L 226.3447 129.5228 L 231.2995 126.8488 L 232.4203 125.0399 L 230.3558 123.7029 L 231.5355 121.1075 L 235.2516 120.7142 L 236.3134 116.7818 L 235.9005 112.6135 L 234.4258 105.9284 L 237.1982 101.4454 L 237.4931 96.0187 L 271.2332 120.2423 L 272.7668 122.6804 L 273.4157 127.6353 L 275.4212 131.0958 L 283.2074 139.9044 L 304.2654 165.2291 L 305.7401 165.8583 L 309.5152 172.5434 L 311.2848 174.2737 L 321.0175 177.105 L 321.3714 178.5207 L 311.3438 197.239 L 301.847 215.1708 L 299.7825 219.8897 L 298.8977 231.2937 L 303.7346 240.8101 L 295.1816 245.8436 L 294.6507 247.8884 L 310.223 270.1459 Z" fill="#ff0066" fill-opacity="1" stroke="#000000" stroke-width="0.4" paint-order="fill" stroke-opacity="1" stroke-dasharray="" stroke-linecap="butt" stroke-linejoin="miter" stroke-miterlimit="10" clip-path="none"/>
<path d="M 480.3982 279.1118 L 475.9152 281.3926 L 475.2074 282.8082 L 476.0922 289.7293 L 477.6258 291.4596 L 480.988 292.246 L 481.4599 295.392 L 482.8166 297.9087 L 481.8728 300.5827 L 476.623 312.2227 L 475.3253 308.7622 L 472.73 306.0095 L 466.7134 308.4476 L 463.4691 307.0319 L 461.0507 310.6497 L 461.8175 313.9529 L 460.4018 316.2337 L 461.1097 323.3121 L 458.3963 330.5477 L 460.8737 331.6488 L 457.6295 335.1093 L 449.4894 337.1542 L 442.4111 334.7161 L 440.7594 332.7499 L 436.0406 331.0196 L 435.0378 331.4129 L 433.4452 336.4463 L 434.4479 337.3901 L 432.8553 343.1314 L 429.906 343.446 L 426.9567 342.4236 L 425.9539 344.3898 L 421.8249 345.4122 L 421.353 346.6706 L 423.8894 349.3446 L 425.1871 353.5917 L 423.9484 358.0746 L 426.6028 363.9732 L 425.8949 364.4451 L 422.1198 365.4675 L 421.1171 361.6138 L 417.5189 359.0184 L 415.9853 353.8276 L 410.4406 351.1536 L 408.8479 351.8614 L 404.247 348.7941 L 400.8258 343.7606 L 403.8341 338.3339 L 407.9631 335.2666 L 409.6737 331.4915 L 412.5051 330.3904 L 410.6175 328.031 L 411.2664 324.7278 L 410.2046 321.5032 L 413.3309 320.4021 L 416.5161 321.9751 L 420.9401 321.9751 L 422.1198 318.3572 L 423.5945 316.7056 L 425.2461 311.9867 L 428.4903 312.2227 L 428.3723 306.2454 L 429.1982 303.0995 L 427.3696 303.65 L 416.0442 303.1781 L 412.3281 302.313 L 409.6737 300.5827 L 407.8452 292.7966 L 407.0783 291.5382 L 405.8986 293.3471 L 403.0673 294.2122 L 398.1714 294.5268 L 396.1659 295.392 L 395.1041 299.8749 L 394.2783 300.74 L 384.1327 299.639 L 382.0092 298.066 L 381.7143 293.0325 L 379.4728 291.0663 L 377.3493 292.9539 L 375.1668 297.6728 L 372.5714 301.7625 L 368.0885 303.3354 L 365.906 299.4817 L 354.6396 292.5606 L 348.859 289.336 L 339.7751 286.1115 L 334.7613 277.1456 L 328.5677 269.674 L 326.5032 265.2697 L 323.377 265.191 L 310.223 270.1459 L 294.6507 247.8884 L 295.1816 245.8436 L 303.7346 240.8101 L 298.8977 231.2937 L 299.7825 219.8897 L 301.847 215.1708 L 311.3438 197.239 L 321.3714 178.5207 L 321.0175 177.105 L 311.2848 174.2737 L 309.5152 172.5434 L 305.7401 165.8583 L 321.9023 163.027 L 348.0332 158.78 L 391.6829 162.3192 L 392.9217 162.0046 L 406.8424 153.7465 L 409.2608 153.3533 L 410.4995 154.4543 L 418.4627 164.4427 L 422.1198 168.1391 L 431.0857 173.8804 L 441.8212 194.4863 L 442.4111 194.5649 L 452.6747 188.509 L 451.9078 215.9572 L 450.5512 217.8448 L 450.9641 237.2709 L 451.377 238.0574 L 469.2498 237.5855 L 471.0783 250.1692 L 473.9097 262.4384 L 477.6848 276.9096 L 480.3982 279.1118 Z" fill="#8cd5f7" fill-opacity="1" stroke="#000000" stroke-width="0.4" paint-order="fill" stroke-opacity="1" stroke-dasharray="" stroke-linecap="butt" stroke-linejoin="miter" stroke-miterlimit="10" clip-path="none"/>
<path d="M 509.7733 361.0632 L 509.0654 363.58 L 508.2986 370.8156 L 507.2369 371.0516 L 498.035 369.0854 L 495.9705 369.0854 L 495.0267 371.2875 L 489.482 371.1302 L 489.482 368.2989 L 488.4793 366.0967 L 481.3419 365.1529 L 479.0415 366.3327 L 477.5078 368.6921 L 474.7355 369.9505 L 469.9576 367.2764 L 463.5871 368.8494 L 458.6323 371.5235 L 454.6802 371.0516 L 453.7954 367.1978 L 449.6074 363.8159 L 447.8378 360.3554 L 445.3014 360.5127 L 445.1834 362.243 L 442.8829 363.8946 L 426.6028 363.9732 L 423.9484 358.0746 L 425.1871 353.5917 L 423.8894 349.3446 L 421.353 346.6706 L 421.8249 345.4122 L 425.9539 344.3898 L 426.9567 342.4236 L 429.906 343.446 L 432.8553 343.1314 L 434.4479 337.3901 L 433.4452 336.4463 L 435.0378 331.4129 L 436.0406 331.0196 L 440.7594 332.7499 L 442.4111 334.7161 L 449.4894 337.1542 L 457.6295 335.1093 L 460.8737 331.6488 L 458.3963 330.5477 L 461.1097 323.3121 L 460.4018 316.2337 L 461.8175 313.9529 L 461.0507 310.6497 L 463.4691 307.0319 L 466.7134 308.4476 L 472.73 306.0095 L 475.3253 308.7622 L 476.623 312.2227 L 486.5327 312.6159 L 487.5355 315.29 L 486.9456 317.7281 L 488.1253 323.9413 L 489.541 324.9637 L 490.6618 327.5591 L 489.3641 329.9185 L 489.541 332.6712 L 492.6083 332.5926 L 494.4959 336.2104 L 509.5373 338.4912 L 511.4839 344.1539 L 506.647 346.9066 L 506.647 351.1536 L 504.2876 351.6254 L 504.1106 355.8725 L 505.1134 357.3668 L 509.7733 361.0632 Z" fill="#8cd5f7" fill-opacity="1" stroke="#000000" stroke-width="0.4" paint-order="fill" stroke-opacity="1" stroke-dasharray="" stroke-linecap="butt" stroke-linejoin="miter" stroke-miterlimit="10" clip-path="none"/>
<path d="M 507.2369 371.0516 L 507.1189 374.5121 L 508.2396 375.5345 L 512.8995 376.9502 L 516.0258 376.9502 L 519.9779 379.5456 L 520.0369 384.7364 L 514.8461 386.3093 L 514.1382 387.9609 L 515.9668 392.9944 L 516.2028 396.5336 L 515.2 400.0728 L 511.6018 398.7357 L 509.7733 399.9941 L 507.7088 404.6344 L 504.2286 407.0725 L 501.1023 411.5554 L 500.2765 416.5102 L 495.6756 420.7572 L 491.6645 422.5662 L 489.3051 427.5996 L 484.7041 432.3185 L 483.3475 437.5093 L 482.2267 438.2958 L 481.6959 436.9588 L 478.9235 435.3858 L 474.4406 435.1499 L 469.1908 433.0264 L 466.1235 429.8018 L 462.2894 428.5434 L 458.6912 426.184 L 456.0959 425.8694 L 452.1438 424.0605 L 449.7253 424.4537 L 446.953 426.6559 L 444.2986 426.9705 L 441.6442 426.1053 L 425.8949 415.9597 L 416.929 408.0949 L 414.2747 406.4433 L 408.612 404.5557 L 403.5982 401.7244 L 395.3401 394.9606 L 393.1576 392.1293 L 397.1687 387.5677 L 398.9382 386.2307 L 412.5641 380.7253 L 412.977 379.7815 L 411.0304 376.9502 L 411.5023 375.0626 L 414.3926 371.7594 L 416.6341 370.8156 L 422.1198 365.4675 L 425.8949 364.4451 L 426.6028 363.9732 L 442.8829 363.8946 L 445.1834 362.243 L 445.3014 360.5127 L 447.8378 360.3554 L 449.6074 363.8159 L 453.7954 367.1978 L 454.6802 371.0516 L 458.6323 371.5235 L 463.5871 368.8494 L 469.9576 367.2764 L 474.7355 369.9505 L 477.5078 368.6921 L 479.0415 366.3327 L 481.3419 365.1529 L 488.4793 366.0967 L 489.482 368.2989 L 489.482 371.1302 L 495.0267 371.2875 L 495.9705 369.0854 L 498.035 369.0854 L 507.2369 371.0516 Z" fill="#ff0066" fill-opacity="1" stroke="#000000" stroke-width="0.4" paint-order="fill" stroke-opacity="1" stroke-dasharray="" stroke-linecap="butt" stroke-linejoin="miter" stroke-miterlimit="10" clip-path="none"/>
<path d="M 482.2267 438.2958 L 483.3475 437.5093 L 484.7041 432.3185 L 489.3051 427.5996 L 491.6645 422.5662 L 495.6756 420.7572 L 500.2765 416.5102 L 501.1023 411.5554 L 504.2286 407.0725 L 507.7088 404.6344 L 509.7733 399.9941 L 511.6018 398.7357 L 515.2 400.0728 L 516.2028 396.5336 L 515.9668 392.9944 L 514.1382 387.9609 L 514.8461 386.3093 L 520.0369 384.7364 L 520.7447 385.3655 L 526.7023 385.8374 L 530.5954 384.2645 L 533.3677 385.2082 L 535.9041 384.3431 L 539.2074 389.4552 L 539.6203 391.5787 L 537.7327 394.0955 L 535.7272 394.646 L 536.2581 397.0841 L 534.8424 399.5222 L 535.6092 402.2749 L 535.9631 407.2297 L 537.3198 409.2746 L 537.9097 412.3419 L 541.5078 416.9821 L 547.5244 421.2291 L 548.8221 424.611 L 547.5244 430.3523 L 545.106 436.0936 L 540.2691 438.3744 L 538.9124 443.5652 L 535.1963 450.093 L 531.3032 454.9692 L 529.8286 457.9579 L 528.8258 463.2273 L 530.0645 469.2046 L 528.7668 475.0245 L 528 473.4516 L 522.8092 472.0359 L 519.388 473.3729 L 518.5032 471.3281 L 516.7926 471.1708 L 513.3714 474.238 L 509.0654 475.9683 L 507.3548 475.8897 L 506.0571 473.3729 L 502.6949 471.6426 L 501.5152 468.7327 L 497.8581 466.6878 L 492.3724 467.7102 L 487.2406 468.1821 L 485.6479 469.2046 L 481.4599 468.1821 L 478.8055 468.4967 L 477.8028 466.8451 L 479.6903 464.1711 L 477.4488 460.6319 L 478.2747 455.4411 L 477.9797 447.5763 L 482.6396 439.3182 L 482.2267 438.2958 Z" fill="#f5fc98" fill-opacity="1" stroke="#000000" stroke-width="0.4" paint-order="fill" stroke-opacity="1" stroke-dasharray="" stroke-linecap="butt" stroke-linejoin="miter" stroke-miterlimit="10" clip-path="none"/>
<path d="M -5 -5 L 89.5156 -5 L 89.5156 115 L -5 115 L -5 -5 Z" fill="rgba(255,255,255,0)" fill-opacity="0" stroke="#ccc" stroke-width="0" paint-order="fill" stroke-opacity="1" stroke-dasharray="" stroke-linecap="butt" stroke-linejoin="miter" stroke-miterlimit="10" transform="matrix(1,0,0,1,5,419)" clip-path="none"/>

<path d="M -5 -5 L 5 -5 L 5 5 L -5 5 L -5 -5 Z" fill="none" fill-opacity="1" stroke="#ccc" stroke-width="0" paint-order="fill" stroke-opacity="1" stroke-dasharray="" stroke-linecap="butt" stroke-linejoin="miter" stroke-miterlimit="10" transform="matrix(1,0,0,1,795,267)" clip-path="none"/>
<path fill="rgba(255,255,255,0)" fill-opacity="0" stroke="#ccc" stroke-width="0" paint-order="fill" stroke-opacity="1" stroke-dasharray="" stroke-linecap="butt" stroke-linejoin="miter" stroke-miterlimit="10" transform="matrix(1,0,0,1,15,10)" clip-path="none"/><defs><filter id="f1" x="-100%" y="-100%" width="1000%" height="1000%"><feOffset result="offOut" in="SourceGraphic" dx="-9.799999999999999" dy="9.799999999999999"></feOffset><feColorMatrix result="matrixOut" in="offOut" type="matrix" values="0.2 0 0 0 0 0 0.2 0 0 0 0 0 0.2 0 0 0 0 0 1 0"></feColorMatrix><feGaussianBlur result="blurOut" in="matrixOut" stdDeviation="8"></feGaussianBlur><feBlend in="SourceGraphic" in2="blurOut" mode="normal"></feBlend></filter></defs>
<text transform="matrix(1 0 0 1 625.583 304.0152)" style="font-family:'Tahoma'; font-size:11px;" class="maplabels1">Ferghana</text>
<text transform="matrix(1 0 0 1 563.1764 283.8419)" style="font-family:'Tahoma'; font-size:13px;" class="maplabels1">Tashkent</text>
<text transform="matrix(0.7648 -0.6443 0.6443 0.7648 555.8411 265.3988)" style="font-family:'Tahoma'; font-size:8px;" class="maplabels1">Tashkent</text>
<text transform="matrix(1 0 0 1 671.2772 284.8251)" style="font-family:'Tahoma'; font-size:11px;" class="maplabels1">Andijon</text>
<text transform="matrix(1 0 0 1 622.6732 274.0501)" style="font-family:'Tahoma'; font-size:11px;" class="maplabels1">Namangan</text>
<text transform="matrix(1 0 0 1 487.5674 305.5096)" style="font-family:'Tahoma'; font-size:13px;" class="maplabels1">Jizzakh</text>
<text transform="matrix(1 0 0 1 566.6359 338.2667)" style="font-family:'Tahoma'; font-size:11px;" class="maplabels1">Sirdaryo</text>
<text transform="matrix(1 0 0 1 345.9041 328.1602)" style="font-family:'Tahoma'; font-size:13px;" class="maplabels1">Bukhoro</text>
<text transform="matrix(1 0 0 1 246.6456 289.3081)" style="font-family:'Tahoma'; font-size:13px;" class="maplabels1">Khorezm</text>
<text transform="matrix(1 0 0 1 157.2108 160.8841)" style="font-family:'Tahoma'; font-size:13px;" class="maplabels1">Karakalpakstan</text>
<text transform="matrix(1 0 0 1 372.731 237.715)" style="font-family:'Tahoma'; font-size:13px;" class="maplabels1">Navoi</text>
<text transform="matrix(1 0 0 1 434.3056 350.8022)" style="font-family:'Tahoma'; font-size:13px;" class="maplabels1">Samarkand</text>
<text transform="matrix(1 0 0 1 420.1934 398.8256)" style="font-family:'Tahoma'; font-size:13px;" class="maplabels1">Kashkadarya</text>
<text transform="matrix(0.6218 -0.7832 0.7832 0.6218 490.8029 459.3494)" style="font-family:'Tahoma'; font-size:12px;" class="maplabels1">Surkhandarya</text>
</svg>
